<svg width="32" height="32" viewBox="0 0 32 32" fill="none" xmlns="http://www.w3.org/2000/svg">
<g clip-path="url(#clip0)">
<path d="M16 0C7.17753 0 0 7.17751 0 16C0 24.8225 7.17753 32 16 32C24.8231 32 32 24.8225 32 16C32 7.17751 24.8231 0 16 0ZM16 2.66657C23.38 2.66657 29.3334 8.61995 29.3334 16C29.3334 23.38 23.38 29.3334 16 29.3334C8.61997 29.3334 2.66657 23.38 2.66657 16C2.66657 8.61995 8.61997 2.66657 16 2.66657ZM15.8747 6.66673C14.5418 6.66673 13.2082 7.59349 13.2082 9.45856C13.2082 12.2601 14.6828 16.6774 15.083 17.8748C15.4843 18.9426 16.5266 18.8082 16.7924 17.8748C17.1919 16.9426 18.6775 12.3909 18.5413 9.45856C18.5413 7.59349 17.2083 6.66673 15.8747 6.66673ZM16 21.3331C14.8026 21.3331 13.9999 22.1358 13.9999 23.3332C13.9999 24.3998 14.8026 25.3333 16 25.3333C17.1974 25.3333 18.0001 24.3998 18.0001 23.3332C18.0001 22.1358 17.1974 21.3331 16 21.3331Z" fill="black"/>
</g>
<defs>
<clipPath id="clip0">
<rect width="32" height="32" fill="white"/>
</clipPath>
</defs>
</svg>
