<svg xmlns="http://www.w3.org/2000/svg" width="34.58823" height="29.64706" viewBox="0 0 34.58823 29.64706" style="width: 100%; height: 100%;"><desc>Made with illustrio</desc>
  
<g class="base" transform="translate(-17.706,-20.176131)"><g fill="none" fill-rule="evenodd" stroke="none" class="main-fill">
    
    
    <path fill="none" d="M24.2941176,0.149132941 C20.4281247,0.149132941 17.2941176,3.28314824 17.2941176,7.14913294 C17.2941176,11.0151259 20.4281247,14.1491329 24.2941176,14.1491329 C28.160111,14.1491329 31.2941176,11.0151259 31.2941176,7.14913294 C31.2941176,3.28314824 28.160111,0.149132941 24.2941176,0.149132941 Z M24.2941176,1.38442706 C24.6823331,1.38442706 25.1176471,1.74068012 25.1176471,2.20795647 L25.1176471,2.72266235 C26.2634939,3.01388294 27.1764706,3.90159865 27.1764706,5.09030941 C27.1806708,5.3873037 27.0246321,5.66355289 26.7681047,5.81327577 C26.5115773,5.96299865 26.194305,5.96299865 25.9377776,5.81327577 C25.6812502,5.66355289 25.5252115,5.3873037 25.5294118,5.09030941 C25.5294118,4.74749471 25.0726721,4.26678 24.2941176,4.26678 C23.2770683,4.26678 23.0588235,4.9763 23.0588235,5.09030941 C23.0588235,5.55308353 23.1527701,5.67788118 23.3547794,5.84950059 C23.5567887,6.02112 23.9650011,6.19112529 24.5257353,6.35133882 C25.159141,6.53231765 25.7726049,6.73843059 26.3014706,7.18773588 C26.8303362,7.63704118 27.1764706,8.37796235 27.1764706,9.20795647 C27.1764706,10.2146812 26.411931,11.2703846 25.1176471,11.5884712 L25.1176471,12.0903094 C25.1176471,12.5575841 24.6823331,12.9138388 24.2941176,12.9138388 C23.9059022,12.9138388 23.4705882,12.4974088 23.4705882,12.0903094 L23.4705882,11.5756035 C22.3247414,11.2843829 21.4117647,10.3966672 21.4117647,9.20795647 C21.4075645,8.91096219 21.5636032,8.63471299 21.8201306,8.48499011 C22.076658,8.33526723 22.3939303,8.33526723 22.6504577,8.48499011 C22.9069851,8.63471299 23.0630238,8.91096219 23.0588235,9.20795647 C23.0588235,9.55077118 23.5155632,10.0314859 24.2941176,10.0314859 C25.311167,10.0314859 25.5294118,9.32196588 25.5294118,9.20795647 C25.5294118,8.74518235 25.4354652,8.62038471 25.2334559,8.44876529 C25.0314466,8.27714588 24.6232346,8.09427294 24.0625,7.93405941 C23.4290943,7.75308059 22.8156304,7.54696765 22.2867647,7.09766235 C21.7578991,6.64835706 21.4117647,5.92030353 21.4117647,5.09030941 C21.4117647,4.08358465 22.1763043,3.04074894 23.4705882,2.72266235 L23.4705882,2.20795647 C23.4705882,1.80085788 23.9059022,1.38442706 24.2941176,1.38442706 Z M13.1764706,13.3256035 C12.7614093,13.3256035 12.1139608,13.4868473 11.5294118,13.7373682 L6.58823529,15.86053 L6.58823529,25.6785447 L8.23529412,25.6785447 C11.3963409,25.7623137 16.9001066,29.7961918 21,29.7961918 C21.8254322,29.7961918 22.3178723,29.4595317 23.0588235,28.9726624 L33.3272059,22.2557506 C34.0454154,21.8338095 34.575555,20.9702558 34.5882353,20.3256035 C34.5882353,18.9611355 33.4821151,17.8550153 32.1176471,17.8550153 C31.5781772,17.8550153 30.9421786,18.1017233 30.4705882,18.26678 L20.0220588,22.42303 L13.6525735,19.4248682 C13.3270764,19.2817911 13.1145321,18.9148886 13.1636029,18.5627359 C13.2126734,18.2105836 13.5191115,17.9036575 13.8713235,17.8550153 C14.0329729,17.8328294 14.2010721,17.8600882 14.3474265,17.9322212 L19.7389706,20.4671476 C20.5896938,19.9110207 20.031949,17.8662079 19.3529412,17.4432506 C19.3529412,17.4432506 16.7323977,15.3997892 15.2352941,14.1491329 C14.8350736,13.8147952 14.170947,13.3256035 13.1764706,13.3256035 Z M0,14.1491329 L0,28.1491329 L4.94117647,28.1491329 L4.94117647,14.1491329 L0,14.1491329 Z" transform="translate(17.706 20.027)" stroke="none" class="main-fill"></path>
  </g></g><style>
          .main-fill {fill: #C4C4C4;}
          .main-stroke {stroke: #C4C4C4;}
          .secondary-fill {fill: ;}
          .secondary-stroke {stroke: ;}

          .main-fill--darken {fill: #9e9e9e;}
          .main-stroke--darken {stroke: #9e9e9e;}
          .secondary-fill--darken {fill: #000000;}
          .secondary-stroke--darken {stroke: #000000;}

          .main-fill--darkener {fill: #848484;}
          .main-stroke--darkener {stroke: #848484;}
          .secondary-fill--darkener {fill: #000000;}
          .secondary-stroke--darkener {stroke: #000000;}
        </style></svg>