<?xml version="1.0" encoding="iso-8859-1"?>
<!-- Generator: Adobe Illustrator 18.1.1, SVG Export Plug-In . SVG Version: 6.00 Build 0)  -->
<svg version="1.1" id="Capa_1" xmlns="http://www.w3.org/2000/svg" xmlns:xlink="http://www.w3.org/1999/xlink" width="70" height="70" x="0px" y="0px"
	 viewBox="0 0 611.999 611.999" style="enable-background:new 0 0 611.999 611.999;" xml:space="preserve">
<g>
	<g fill="#C4C4C4">
		<path d="M570.416,562.822c-5.758-109.379-104.063-154.627-104.063-154.627c-23.487-10.982-66.07-32.48-93.989-46.691
			c35.77-39.134,46.335-102.939,47.98-112.018c7.465-41.08,3.708-91.926,3.708-91.926C417.226,58.685,317.399,57.132,306.945,57.236
			c-0.577,0-0.952,0.006-0.952,0.006s-0.319-0.006-0.792,0c-9.478-0.123-110.404,0.878-117.267,100.318
			c0,0-3.757,50.84,3.708,91.926c0.485,2.646,1.75,10.018,4.15,19.987c18.803,24.684,47.832,36.789,71.657,42.713
			c2.996-2.91,7.078-4.721,11.602-4.721h43.425c9.19,0,16.63,7.446,16.63,16.636c0,9.196-7.44,16.648-16.63,16.648h-43.425
			c-6.857,0-12.719-4.137-15.279-10.037c-17.771-4.322-38.336-11.848-56.691-24.794c7.323,19.011,17.759,39.404,32.553,55.592
			c-27.919,14.211-70.484,35.702-93.989,46.685c0,0-98.292,45.248-104.063,154.627c0,0-1.707,18.189,32.762,25.076
			c0,0,105.597,24.1,231.661,24.1c126.076,0,231.673-24.1,231.673-24.1C572.141,581.011,570.416,562.822,570.416,562.822z"/>
		<path d="M154.147,284.944h10.491V161.722c0.025-0.307,0.098-0.602,0.098-0.915v-18.195c0-32.437,10.012-58.729,29.76-78.151
			c40.847-40.19,110.619-39.643,111.797-39.478c0.829-0.061,70.018-1.056,111.048,39.103c19.883,19.46,29.969,45.874,29.969,78.526
			v19.239c0,0.19,0.049,0.362,0.049,0.546v122.546h10.491c25.819,0,46.746-20.927,46.746-46.74v-44.923
			c0-20.767-13.56-38.348-32.308-44.432v-6.231c0-39.619-12.615-72.043-37.47-96.377C386.361-1.186,308.958,0.042,306.251,0.005
			c-3.253-0.031-80.73-0.982-129.164,46.531c-24.769,24.309-37.335,56.635-37.335,96.076v6.206
			c-18.772,6.083-32.345,23.677-32.345,44.456v44.923C107.408,264.017,128.34,284.944,154.147,284.944z"/>
	</g>
</g>
</svg>
