<svg xmlns="http://www.w3.org/2000/svg" width="22.90909" height="34.36364" viewBox="0 0 22.90909 34.36364" style="width: 100%; height: 100%;"><desc>Made with illustrio</desc>
  
<g class="base" transform="translate(-23.545,-17.817996)"><g fill="none" fill-rule="evenodd" stroke="none" class="main-fill">
    
    <path fill="none" d="M21.6363636,13.3636364 L19.7272727,13.3636364 L19.7272727,8.27272727 C19.7272727,3.71127273 16.016,0 11.4545455,0 C6.89309091,0 3.18181818,3.71127273 3.18181818,8.27272727 L3.18181818,13.3636364 L1.27272727,13.3636364 C0.570181818,13.3636364 0,13.9338182 0,14.6363636 L0,33.0909091 C0,33.7934545 0.570181818,34.3636364 1.27272727,34.3636364 L21.6363636,34.3636364 C22.3389091,34.3636364 22.9090909,33.7934545 22.9090909,33.0909091 L22.9090909,14.6363636 C22.9090909,13.9338182 22.3389091,13.3636364 21.6363636,13.3636364 L21.6363636,13.3636364 Z M5.72727273,29.2727273 L2.54545455,29.2727273 C2.19418182,29.2727273 1.90909091,28.9882727 1.90909091,28.6363636 C1.90909091,28.2844545 2.19418182,28 2.54545455,28 L5.72727273,28 C6.07854545,28 6.36363636,28.2844545 6.36363636,28.6363636 C6.36363636,28.9882727 6.07854545,29.2727273 5.72727273,29.2727273 L5.72727273,29.2727273 Z M5.72727273,25.4545455 L2.54545455,25.4545455 C2.19418182,25.4545455 1.90909091,25.1700909 1.90909091,24.8181818 C1.90909091,24.4662727 2.19418182,24.1818182 2.54545455,24.1818182 L5.72727273,24.1818182 C6.07854545,24.1818182 6.36363636,24.4662727 6.36363636,24.8181818 C6.36363636,25.1700909 6.07854545,25.4545455 5.72727273,25.4545455 L5.72727273,25.4545455 Z M5.72727273,21.6363636 L2.54545455,21.6363636 C2.19418182,21.6363636 1.90909091,21.3519091 1.90909091,21 C1.90909091,20.6480909 2.19418182,20.3636364 2.54545455,20.3636364 L5.72727273,20.3636364 C6.07854545,20.3636364 6.36363636,20.6480909 6.36363636,21 C6.36363636,21.3519091 6.07854545,21.6363636 5.72727273,21.6363636 L5.72727273,21.6363636 Z M17.1818182,13.3636364 L5.72727273,13.3636364 L5.72727273,8.27272727 C5.72727273,5.11509091 8.29690909,2.54545455 11.4545455,2.54545455 C14.6128182,2.54545455 17.1818182,5.11509091 17.1818182,8.27272727 L17.1818182,13.3636364 L17.1818182,13.3636364 Z" transform="translate(23.545 17.818)" stroke="none" class="main-fill"></path>
  </g></g><style>
          .main-fill {fill: #C4C4C4;}
          .main-stroke {stroke: #C4C4C4;}
          .secondary-fill {fill: ;}
          .secondary-stroke {stroke: ;}

          .main-fill--darken {fill: #9e9e9e;}
          .main-stroke--darken {stroke: #9e9e9e;}
          .secondary-fill--darken {fill: #000000;}
          .secondary-stroke--darken {stroke: #000000;}

          .main-fill--darkener {fill: #848484;}
          .main-stroke--darkener {stroke: #848484;}
          .secondary-fill--darkener {fill: #000000;}
          .secondary-stroke--darkener {stroke: #000000;}
        </style></svg>