<?xml version="1.0" encoding="UTF-8" standalone="no"?>
<svg width="194px" height="124px" viewBox="0 0 194 124" version="1.1" xmlns="http://www.w3.org/2000/svg" xmlns:xlink="http://www.w3.org/1999/xlink">
    <!-- Generator: Sketch 43 (38999) - http://www.bohemiancoding.com/sketch -->
    <title>winBTU</title>
    <desc>Created with Sketch.</desc>
    <defs></defs>
    <g id="Page-1" stroke="none" stroke-width="1" fill="none" fill-rule="evenodd">
        <g id="winBTU" transform="translate(-3.000000, -3.000000)">
            <rect id="Rectangle-14" x="0" y="0" width="200" height="130"></rect>
            <g id="deco-copy" transform="translate(3.000000, 3.000000)">
                <rect id="Rectangle-7" stroke="#DFCCF0" stroke-width="6" x="20" y="20" width="154" height="84" rx="10"></rect>
                <g id="locked57" transform="translate(154.000000, 84.000000)" fill-rule="nonzero" fill="#FFFFFF">
                    <rect id="Rectangle-8" x="0" y="0" width="40" height="40"></rect>
                </g>
                <g id="locked57-copy" fill-rule="nonzero" fill="#FFFFFF">
                    <rect id="Rectangle-8" x="0" y="0" width="40" height="40"></rect>
                </g>
                <g id="mark1" transform="translate(164.000000, 95.000000)" fill-rule="nonzero" fill="#654785">
                    <polygon id="Shape" points="10 15.273 16.18 19 14.545 11.971 20 7.244 12.809 6.627 10 0 7.191 6.627 0 7.244 5.455 11.971 3.82 19"></polygon>
                </g>
                <g id="BTU-Copy" transform="translate(123.000000, 62.000000) rotate(0.000000) translate(-123.000000, -62.000000) translate(98.000000, 37.000000)">
                    <g id="Rectangle-2-Copy" transform="translate(0.000000, 0.000000)">
                        <g id="path-1-link" fill-rule="nonzero" fill="#000000">
                            <rect id="path-1" x="2.27373675e-13" y="0" width="49.5331695" height="49.4545455" rx="24.7272727"></rect>
                        </g>
                        <g id="path-1-link" fill="#654785">
                            <rect id="path-1" x="2.27373675e-13" y="0" width="49.5331695" height="49.4545455" rx="24.7272727"></rect>
                        </g>
                        <rect id="Rectangle-path" stroke="#AE7FD9" stroke-width="2" x="-1.11022302e-16" y="0" width="49.5331695" height="49.4545455" rx="23.7272727"></rect>
                    </g>
                    <g id="logo" transform="translate(6.191646, 6.181818)">
                        <ellipse id="Oval-3" cx="18.6987715" cy="18.6690909" rx="18.6987715" ry="18.6690909"></ellipse>
                        <g id="#ffffffff" transform="translate(0.247666, 0.000000)" fill-rule="nonzero" fill="#AE7FD9">
                            <path d="M14.2267433,0.590140581 C17.0123458,-0.0764761012 19.9473138,-0.0599062793 22.7380227,0.567197751 C22.7546189,0.591415183 22.7878112,0.638575445 22.805684,0.662792877 C23.468254,1.56521087 24.1103979,2.48292409 24.6797741,3.44779756 C25.1891487,4.28648547 25.6346919,5.15958763 26.0661922,6.04033739 C27.2151574,5.97278351 28.3692292,5.91925023 29.5207477,5.98680412 C30.4028977,6.00974695 31.2786646,6.11426429 32.1569847,6.1945642 L32.2603916,6.20093721 C33.3353124,7.39396439 34.2519314,8.72464855 34.9910991,10.1483786 C34.685985,11.0737395 34.3502318,11.9863543 33.9634135,12.87985 C33.3174397,11.1718838 32.3918843,9.57990628 31.2505788,8.15490159 C29.8118189,7.99430178 28.3602928,7.97263355 26.9138732,8.03253983 C27.5675068,9.75707591 28.057732,11.5402437 28.3934851,13.3540019 C28.5645533,14.4004499 28.7100889,15.4532709 28.7713671,16.5137395 C28.6475341,17.0541706 29.2079739,17.2810497 29.3637225,17.7309841 C29.7530941,18.5467291 29.4952152,19.5740581 28.8096659,20.1514527 C28.8007295,20.2585192 28.7841333,20.4701031 28.7751969,20.575895 C28.7445579,21.03985 28.7100889,21.5025305 28.651364,21.9639363 C28.586256,22.5948641 28.4815725,23.2219681 28.3794422,23.8490722 C28.043689,25.6883224 27.5330378,27.4931584 26.866638,29.2406373 C28.2862484,29.305642 29.7071354,29.2737769 31.1216394,29.142493 C32.3803946,27.6346392 33.3825477,25.9101031 34.033628,24.0555576 C34.3795942,23.1187254 34.6004509,22.1423805 34.7779022,21.1622118 C35.2642975,22.0875726 35.7238836,23.0256795 36.1375111,23.9854545 L36.1834697,24.0874227 C35.3332354,26.7513402 33.9008587,29.2584817 31.9437878,31.2583318 C29.9726741,31.2710778 27.9964538,31.3947142 26.0291699,31.2213683 C25.5555409,32.1033927 25.1112743,33.0019869 24.5904101,33.8585192 C23.6788976,34.2128585 22.740576,34.4945455 21.7831049,34.6908341 L21.5635249,34.739269 C22.4137592,33.542418 23.1873958,32.2907591 23.8537957,30.9830178 C22.0563034,30.697507 20.2805137,30.2679663 18.5634489,29.6638051 C17.5740622,29.3145642 16.5987183,28.9207123 15.6540135,28.4669541 C15.4548595,28.3700843 15.2557056,28.2770384 15.0565516,28.1839925 C14.4871755,28.4376382 13.8054561,28.4580319 13.2475696,28.1623243 C12.6232985,27.8513215 12.1969047,27.2038238 12.1381798,26.5129897 C12.0628587,26.4581818 11.9122166,26.3472915 11.8368956,26.291209 C10.9113402,25.6908716 10.0419565,25.0089597 9.19044555,24.3079288 C7.78998455,23.107254 6.49293042,21.7880412 5.32481572,20.3617619 C4.47968794,21.6363636 3.75583981,22.9861668 3.11497252,24.3729335 C3.76477621,26.1701218 4.79118519,27.8156326 6.01547152,29.2776007 C7.53210568,29.4076101 9.05895286,29.443299 10.5781403,29.3400562 C10.5909066,29.3719213 10.6164391,29.4343768 10.6279288,29.4662418 C10.8832544,30.0920712 11.1526229,30.7115276 11.4411409,31.3233365 C10.4198384,31.3959888 9.39853593,31.4635426 8.37468021,31.4405998 C7.32912181,31.4265792 6.2873933,31.3513777 5.24566478,31.2519588 C5.18693989,31.2443112 5.06949011,31.2302905 5.01076522,31.2226429 C2.61325768,28.6555951 0.94470478,25.40791 0.316603764,21.9499157 C-0.136599205,19.5052296 -0.103406875,16.9649485 0.442989944,14.5368322 C1.11066643,11.5211246 2.56219256,8.6864105 4.60735074,6.37173383 C7.11337167,3.51535145 10.5219686,1.45559513 14.2267433,0.590140581 L14.2267433,0.590140581 Z M15.8723169,2.34781631 C14.8625041,2.52116214 13.8577978,2.75823805 12.8990501,3.12532334 C11.1781555,3.73585754 9.58237037,4.66759138 8.14999367,5.79433927 C7.34316472,6.47242737 6.56697485,7.19512652 5.90440487,8.01724461 C4.70182122,9.4473477 3.72264748,11.0864855 3.09837635,12.8454358 C3.72903062,14.2576945 4.47330479,15.6202437 5.32609235,16.9126898 C6.46739786,15.5080787 7.75168571,14.220731 9.1061881,13.0277038 C9.96663543,12.3559888 10.7989969,11.6371134 11.7334887,11.0699157 L11.7322121,11.0482474 C11.8751944,10.9539269 12.0156235,10.8557826 12.154776,10.7538144 C12.1573292,10.3331959 12.2620127,9.90875351 12.5032954,9.55951265 C13.0790547,8.65199625 14.4016414,8.37668229 15.2978343,8.96809747 C15.449753,8.89926898 15.6016718,8.82916589 15.7548671,8.76033739 C16.6816991,8.30275539 17.6557664,7.95351453 18.614514,7.57368322 C20.3417918,7.00393627 22.1163049,6.56929709 23.911244,6.2710403 C23.2231414,4.93015933 22.4495048,3.63261481 21.5584184,2.4153702 C19.6843284,2.06867854 17.7553433,2.05720712 15.8723169,2.34781631 L15.8723169,2.34781631 Z M21.7677854,8.78837863 C20.7439297,9.03565136 19.7353935,9.34537957 18.7498366,9.71373946 L18.7906887,9.73030928 C17.9136452,9.96865979 17.0927734,10.409672 16.2540287,10.7665604 C16.1838142,11.337582 15.9450847,11.9086036 15.4778389,12.2680412 C14.8637807,12.7829803 13.949715,12.860731 13.2437397,12.4898219 C12.4049951,13.0519213 11.5726336,13.6305904 10.8117632,14.2972071 C9.94110286,14.9842174 9.13555055,15.7528022 8.36829707,16.5519775 C7.7287064,17.2134958 7.13635097,17.9183505 6.56442159,18.6372259 C7.19252261,19.4274789 7.84487956,20.1998875 8.55851465,20.9149391 L8.55468477,20.9315089 C9.31938499,21.6835239 10.091745,22.4317151 10.9381494,23.0932334 C11.6071025,23.6527835 12.3181844,24.1588004 13.036926,24.649522 C13.6726867,24.2289035 14.5395172,24.2008622 15.195704,24.5908903 C15.8633805,24.9656232 16.2425391,25.7291097 16.2195598,26.4836739 C17.0353251,26.8686036 17.8574736,27.2407873 18.7064313,27.5454171 C19.7073077,27.9226992 20.73244,28.2362512 21.7716153,28.4898969 C22.7495124,28.7320712 23.742729,28.9054171 24.7397756,29.0481724 C25.1291471,28.0871228 25.4789432,27.1095033 25.7546949,26.108941 L25.7687378,26.1025679 C26.0470427,25.0548454 26.2947086,23.9982006 26.4606702,22.9262605 C26.5934396,22.1117901 26.6751437,21.2909466 26.7440817,20.4675539 C26.2155576,20.236851 25.775121,19.798388 25.5874566,19.2490347 C25.2095747,18.2586692 25.7623547,17.0694658 26.7415284,16.6832615 C26.677697,15.8471228 26.5947162,15.0122587 26.4530105,14.1863168 C26.2947086,13.1156514 26.0419362,12.0615558 25.7585248,11.0189316 C25.4789432,10.0719025 25.1585096,9.1388941 24.793394,8.22245548 C23.7759214,8.36138707 22.7635553,8.5372821 21.7677854,8.78837863 L21.7677854,8.78837863 Z M2.28005775,15.8114339 C1.97877353,17.6787254 1.97622027,19.5906279 2.29027078,21.4566448 C2.81624155,20.4853983 3.4098736,19.5536645 4.02520834,18.6359513 C3.40221384,17.7195127 2.82134806,16.777582 2.28005775,15.8114339 Z" id="Shape"></path>
                        </g>
                        <g id="#30303030" opacity="0.19" transform="translate(22.971646, 0.637301)" fill-rule="nonzero" fill="#303030">
                            <path d="M0.0817041972,0.0254920337 C0.270645153,-0.0471602624 0.459586109,0.0560824742 0.643420553,0.0943205248 C2.18048076,0.527685098 3.69456167,1.11272727 5.05034069,1.9628866 C4.56139213,2.50969072 3.87584285,2.82196813 3.34859546,3.327985 C2.89666912,3.12787254 2.46516882,2.81559513 1.95579422,2.81049672 C1.3864181,1.84562324 0.744274171,0.927910028 0.0817041972,0.0254920337 Z" id="Shape"></path>
                        </g>
                        <g id="#33333333" opacity="0.2" transform="translate(6.120155, 2.294283)" fill-rule="nonzero" fill="#333333">
                            <path d="M7.02656096,0.8310403 C7.98530865,0.463955014 8.99001494,0.2268791 9.99982776,0.0535332709 C9.15852985,1.29754452 8.31340206,2.55175258 7.67764128,3.91685098 C9.21214823,4.16284911 10.7262291,4.52865979 12.2020112,5.01683224 C12.394782,5.07546392 12.5722333,5.16978444 12.7420249,5.27940019 C11.7832772,5.65923149 10.80921,6.00847235 9.88237797,6.46605436 C8.86490539,6.1945642 7.82828339,5.98425492 6.78272499,5.85552015 C6.41633273,6.74136832 6.07802629,7.64506092 5.83929684,8.57297095 L5.85972289,8.75396439 L5.86099952,8.77563261 C4.92650776,9.34283037 4.09414625,10.0617057 3.23369893,10.7334208 C3.47881152,8.98084349 4.08648649,7.30729147 4.62650016,5.63119025 C3.09454647,5.53941893 1.55876289,5.57765698 0.031915702,5.72296157 C0.694485676,4.90084349 1.47067555,4.17814433 2.2775045,3.50005623 C3.35114871,3.56378632 4.42989944,3.5484911 5.50354366,3.63516401 C5.99504547,2.69195876 6.48910053,1.75002812 7.02656096,0.8310403 Z" id="Shape"></path>
                        </g>
                        <g id="#2a2a2a2a" opacity="0.16" transform="translate(26.290879, 2.549203)" fill-rule="nonzero" fill="#2A2A2A">
                            <path d="M1.73110768,0.0509840675 L1.75281035,0.0254920337 C3.24774184,0.902417994 4.62011702,1.98710403 5.82014742,3.23621368 C5.93121406,3.36112465 6.07291978,3.4745642 6.11377188,3.64536082 C5.23545176,3.56506092 4.3596849,3.46054358 3.47753489,3.43760075 C2.99752273,3.43250234 2.63368373,3.10875351 2.28005775,2.82834114 C1.57535905,2.28918463 0.801722435,1.84944705 0.0293624459,1.41608247 C0.556609843,0.910065604 1.24215912,0.597788191 1.73110768,0.0509840675 Z" id="Shape"></path>
                        </g>
                        <g id="#28282829" opacity="0.16" transform="translate(8.545748, 8.667291)" fill-rule="nonzero" fill="#282828">
                            <path d="M10.4517541,1.04644799 C11.437311,0.678088097 12.4458472,0.368359888 13.4697029,0.12108716 C14.3761088,0.601611996 15.2901745,1.07194002 16.1518985,1.63276476 C15.6310342,2.14642924 14.9608045,2.46635426 14.4246207,2.96344892 C13.1735252,2.21653233 11.8420021,1.61364574 10.4926062,1.06301781 L10.4517541,1.04644799 Z" id="Shape"></path>
                            <path d="M0.0702145444,7.88468604 C0.837468021,7.08551078 1.64302034,6.31692596 2.51368069,5.62991565 C2.62730059,5.98552952 2.54176651,6.35516401 2.49708453,6.71460169 C2.18303402,9.27655108 2.27239798,11.8754639 2.64006687,14.4259419 C1.79366245,13.7644236 1.02130246,13.0162324 0.256602244,12.2642174 L0.260432128,12.2476476 C0.353625978,12.0016495 0.31277388,11.7378069 0.305114111,11.4828866 C0.229793055,10.2707404 0.248942476,9.05477038 0.315327136,7.84134958 C0.254048988,7.85282099 0.131492692,7.87448922 0.0702145444,7.88468604 Z" id="Shape"></path>
                        </g>
                        <g id="#13131313" opacity="0.07" transform="translate(10.843679, 10.069353)" fill-rule="nonzero" fill="#131313">
                            <path d="M23.3674004,2.81049672 C23.7542187,1.91700094 24.0899719,1.00438613 24.395086,0.0790253046 C25.3193647,1.83415183 25.9129968,3.76007498 26.2078979,5.71913777 C26.1542795,5.95238988 26.2155576,6.28378632 25.9576788,6.40997188 C25.4266015,6.75411434 24.9440361,7.18365511 24.3593404,7.43730084 C24.3031688,6.94657919 24.285296,6.44438613 24.1346539,5.9689597 C23.7286861,6.48772259 23.4631475,7.09825679 23.0865422,7.63613871 C22.905261,7.95606373 22.5809975,8.24539831 22.6231262,8.64434864 C22.3077991,9.12869728 21.7843816,9.38489222 21.295433,9.65638238 C20.457965,10.3153515 19.5438993,10.8723524 18.7294106,11.5606373 C18.5238735,11.7059419 18.285144,11.7938894 18.0553509,11.8945829 C18.1140758,11.4331771 18.1485448,10.9704967 18.1791839,10.5065417 C18.9209048,9.9699344 19.5004939,9.2204686 19.9907191,8.45698219 C19.6115606,7.91782568 19.1277185,7.46279288 18.7421769,6.92746017 C19.2170825,6.44566073 19.9434839,6.23152765 20.2537045,5.59677601 C20.6137136,5.94474227 20.9188277,6.34241799 21.2341549,6.72989691 C22.0882191,5.50755389 22.7316396,4.1552015 23.3674004,2.81049672 Z" id="Shape"></path>
                            <path d="M1.73366093,18.105717 C1.87153677,18.4116214 1.9455812,18.7570384 2.17026774,19.014508 C3.14688822,18.889597 4.12095544,18.707329 5.05800046,18.3976007 C6.00270524,18.851359 6.97804909,19.2452109 7.96743585,19.5944517 C7.84743281,19.6811246 7.71849338,19.7499531 7.57934092,19.7996626 C6.11887839,20.3069541 4.61245726,20.6727648 3.09199321,20.9531771 C3.06901391,21.4107591 3.49923757,21.7650984 3.62690038,22.198463 C3.08433344,22.5770197 2.48048836,22.8740019 2.02090225,23.3608997 C1.55237975,22.7032052 1.23449935,21.9575633 0.845127789,21.2539831 C0.556609843,20.6421743 0.287241318,20.0227179 0.031915702,19.3968885 C0.561716356,18.9138144 1.27024494,18.6627179 1.73366093,18.105717 Z" id="Shape"></path>
                        </g>
                        <g id="#23232323" opacity="0.14" transform="translate(22.843983, 10.196813)" fill-rule="nonzero" fill="#232323">
                            <path d="M1.85366397,0.103242737 C2.3094202,0.304629803 2.65666304,0.7558388 3.16220776,0.822118088 C3.44561919,1.86474227 3.69839155,2.91883786 3.85669343,3.98950328 C2.64645001,3.08963449 1.43365333,2.1910403 0.12638618,1.4339269 C0.662569974,0.93683224 1.33279972,0.616907216 1.85366397,0.103242737 Z" id="Shape"></path>
                        </g>
                        <g id="#19191919" opacity="0.1" transform="translate(28.588809, 13.255858)" fill-rule="nonzero" fill="#191919">
                            <path d="M0.0523417513,0.0981443299 C0.271921781,0.193739456 0.485118671,0.311002812 0.654910205,0.484348641 C1.29067099,1.10890347 1.93792143,1.72453608 2.50857418,2.41027179 C2.19835356,3.04502343 1.47195218,3.25915651 0.997046531,3.74095595 C0.829808252,3.55613871 0.633207528,3.3993627 0.430223663,3.25788191 C0.368945515,2.19741331 0.223409914,1.14459231 0.0523417513,0.0981443299 Z" id="Shape"></path>
                        </g>
                        <g id="#0b0b0b0b" opacity="0.04" transform="translate(32.929345, 15.677601)" fill-rule="nonzero" fill="#0B0B0B">
                            <path d="M4.12223207,0.110890347 C4.40181362,1.40716026 4.36351478,2.76333646 4.3098964,4.08764761 C4.14138149,5.51010309 3.97924973,6.96569822 3.45583221,8.3078538 C3.04220472,7.34807873 2.58261861,6.40997188 2.09622331,5.48461106 C1.91877201,6.46477976 1.69791535,7.44112465 1.35194914,8.37795689 C0.838744649,7.68074977 0.546396819,6.85608247 0.116173155,6.11044049 C0.642143925,5.71403936 1.20386028,5.35715089 1.77961954,5.04232427 C1.85366397,5.09330834 2.00175283,5.19527648 2.07452063,5.24626054 C2.32729299,4.13480787 2.26984473,2.96727273 2.27367461,1.82905342 C2.85837027,1.57540769 3.34093569,1.14586692 3.87201297,0.801724461 C4.12989184,0.675538894 4.06861369,0.344142455 4.12223207,0.110890347 Z" id="Shape"></path>
                        </g>
                        <g id="#0e0e0e0e" opacity="0.05" transform="translate(10.843679, 18.609185)" fill-rule="nonzero" fill="#0E0E0E">
                            <path d="M22.6231262,0.104517338 C23.1350541,0.706129335 23.5167659,1.40588566 23.8652853,2.11074039 C23.2895261,2.42556701 22.7278097,2.78245548 22.201839,3.17885661 C21.9107677,2.70852858 21.6528889,2.21270853 21.2941564,1.78954077 C20.6941412,2.19741331 20.3532815,2.870403 19.819651,3.35220244 C19.1379316,3.97803187 18.5774918,4.75044049 17.7834292,5.23988754 C17.8855594,4.61278351 17.9902429,3.98567948 18.0553509,3.35475164 C18.285144,3.25405811 18.5238735,3.16611059 18.7294106,3.020806 C19.5438993,2.33252109 20.457965,1.77552015 21.295433,1.11655108 C21.7843816,0.845060918 22.3077991,0.588865979 22.6231262,0.104517338 Z" id="Shape"></path>
                            <path d="M3.62690038,13.6586317 C3.92563135,14.0295408 4.1145723,14.4743768 4.38777071,14.8631303 C4.65458598,15.3015933 4.9916158,15.6979944 5.21119583,16.163224 C4.07116695,16.1925398 2.92986145,16.1594002 1.78983257,16.1899906 C1.22045645,16.1797938 0.647250437,16.2346017 0.0817041972,16.1453796 C0.274475037,16.0561575 0.444266572,15.9261481 0.589802173,15.7719213 C0.834914765,15.4953327 1.28556448,15.4647423 1.43492996,15.0963824 C1.67238279,15.1907029 1.91749538,15.2595314 2.16899111,15.3054171 C2.12558575,15.142268 2.07962714,14.979119 2.02090225,14.8210684 C2.48048836,14.3341706 3.08433344,14.0371884 3.62690038,13.6586317 Z" id="Shape"></path>
                        </g>
                        <g id="#0f0f0f0f" opacity="0.06" transform="translate(18.886436, 22.815370)" fill-rule="nonzero" fill="#0F0F0F">
                            <path d="M2.29410066,3.7014433 C4.29074698,2.76078725 6.10738874,1.49000937 7.82190025,0.110890347 C7.6559386,1.18283037 7.40827275,2.23947516 7.12996783,3.28719775 L7.11592492,3.29357076 C6.40484308,3.59437676 5.82908382,4.12333646 5.15374756,4.48659794 C4.4962841,4.9110403 3.74562679,5.18635426 3.13284531,5.67452671 C2.09367005,5.42088097 1.0685377,5.10732896 0.0676612883,4.73004686 C0.802999063,4.37188379 1.57918894,4.10039363 2.29410066,3.7014433 Z" id="Shape"></path>
                        </g>
                        <g id="#1b1b1b1b" opacity="0.11" transform="translate(9.311725, 24.217432)" fill-rule="nonzero" fill="#1B1B1B">
                            <path d="M0.12638618,0.0904967198 C0.97789711,0.791527648 1.84728083,1.47343955 2.77283619,2.07377694 C2.71921781,2.20633552 2.7141113,2.3388941 2.75624003,2.47272727 C2.90815877,2.97364574 3.07922693,3.46819119 3.26561463,3.95763824 C2.80219864,4.51463918 2.09367005,4.76573571 1.5638694,5.24880975 C1.55237975,5.2169447 1.52684718,5.15448922 1.5140809,5.12262418 C0.971513969,3.68614808 0.49916158,2.22035614 0.168514907,0.720149953 C0.130216064,0.512389878 0.130216064,0.299531396 0.12638618,0.0904967198 Z" id="Shape"></path>
                        </g>
                        <g id="#14141414" opacity="0.08" transform="translate(5.481841, 31.227741)" fill-rule="nonzero" fill="#141414">
                            <path d="M0.0114896527,0.0242174321 C1.05321817,0.123636364 2.09494668,0.198837863 3.14050508,0.212858482 C3.63966666,0.744367385 4.28564047,1.09870665 4.89586869,1.48618557 C5.49971377,1.86984067 6.14441095,2.18594189 6.7967679,2.47782568 C6.64740242,2.84618557 6.1967527,2.87677601 5.95164011,3.15336457 C5.80610451,3.30759138 5.63631298,3.43760075 5.44354214,3.52682287 C4.973743,3.5535895 4.45032549,3.63898782 4.03797462,3.35475164 C2.58517186,2.51733833 1.21534993,1.5078538 0.0663846602,0.284236176 C0.0523417513,0.21923149 0.0255325616,0.0892221181 0.0114896527,0.0242174321 Z" id="Shape"></path>
                        </g>
                    </g>
                </g>
                <g id="BTU-Copy-2" transform="translate(98.000000, 62.000000) rotate(0.000000) translate(-98.000000, -62.000000) translate(73.000000, 37.000000)">
                    <g id="Rectangle-2-Copy" transform="translate(0.000000, 0.000000)">
                        <g id="path-3-link" fill-rule="nonzero" fill="#000000">
                            <rect id="path-3" x="-7.10542736e-15" y="7.10542736e-15" width="49.5331695" height="49.4545455" rx="24.7272727"></rect>
                        </g>
                        <g id="path-3-link" fill="#654785">
                            <rect id="path-3" x="-7.10542736e-15" y="7.10542736e-15" width="49.5331695" height="49.4545455" rx="24.7272727"></rect>
                        </g>
                        <rect id="Rectangle-path" stroke="#AE7FD9" stroke-width="2" x="-1.11022302e-16" y="0" width="49.5331695" height="49.4545455" rx="23.7272727"></rect>
                    </g>
                    <g id="logo" transform="translate(6.191646, 6.181818)">
                        <ellipse id="Oval-3" cx="18.6987715" cy="18.6690909" rx="18.6987715" ry="18.6690909"></ellipse>
                        <g id="#ffffffff" transform="translate(0.247666, 0.000000)" fill-rule="nonzero" fill="#AE7FD9">
                            <path d="M14.2267433,0.590140581 C17.0123458,-0.0764761012 19.9473138,-0.0599062793 22.7380227,0.567197751 C22.7546189,0.591415183 22.7878112,0.638575445 22.805684,0.662792877 C23.468254,1.56521087 24.1103979,2.48292409 24.6797741,3.44779756 C25.1891487,4.28648547 25.6346919,5.15958763 26.0661922,6.04033739 C27.2151574,5.97278351 28.3692292,5.91925023 29.5207477,5.98680412 C30.4028977,6.00974695 31.2786646,6.11426429 32.1569847,6.1945642 L32.2603916,6.20093721 C33.3353124,7.39396439 34.2519314,8.72464855 34.9910991,10.1483786 C34.685985,11.0737395 34.3502318,11.9863543 33.9634135,12.87985 C33.3174397,11.1718838 32.3918843,9.57990628 31.2505788,8.15490159 C29.8118189,7.99430178 28.3602928,7.97263355 26.9138732,8.03253983 C27.5675068,9.75707591 28.057732,11.5402437 28.3934851,13.3540019 C28.5645533,14.4004499 28.7100889,15.4532709 28.7713671,16.5137395 C28.6475341,17.0541706 29.2079739,17.2810497 29.3637225,17.7309841 C29.7530941,18.5467291 29.4952152,19.5740581 28.8096659,20.1514527 C28.8007295,20.2585192 28.7841333,20.4701031 28.7751969,20.575895 C28.7445579,21.03985 28.7100889,21.5025305 28.651364,21.9639363 C28.586256,22.5948641 28.4815725,23.2219681 28.3794422,23.8490722 C28.043689,25.6883224 27.5330378,27.4931584 26.866638,29.2406373 C28.2862484,29.305642 29.7071354,29.2737769 31.1216394,29.142493 C32.3803946,27.6346392 33.3825477,25.9101031 34.033628,24.0555576 C34.3795942,23.1187254 34.6004509,22.1423805 34.7779022,21.1622118 C35.2642975,22.0875726 35.7238836,23.0256795 36.1375111,23.9854545 L36.1834697,24.0874227 C35.3332354,26.7513402 33.9008587,29.2584817 31.9437878,31.2583318 C29.9726741,31.2710778 27.9964538,31.3947142 26.0291699,31.2213683 C25.5555409,32.1033927 25.1112743,33.0019869 24.5904101,33.8585192 C23.6788976,34.2128585 22.740576,34.4945455 21.7831049,34.6908341 L21.5635249,34.739269 C22.4137592,33.542418 23.1873958,32.2907591 23.8537957,30.9830178 C22.0563034,30.697507 20.2805137,30.2679663 18.5634489,29.6638051 C17.5740622,29.3145642 16.5987183,28.9207123 15.6540135,28.4669541 C15.4548595,28.3700843 15.2557056,28.2770384 15.0565516,28.1839925 C14.4871755,28.4376382 13.8054561,28.4580319 13.2475696,28.1623243 C12.6232985,27.8513215 12.1969047,27.2038238 12.1381798,26.5129897 C12.0628587,26.4581818 11.9122166,26.3472915 11.8368956,26.291209 C10.9113402,25.6908716 10.0419565,25.0089597 9.19044555,24.3079288 C7.78998455,23.107254 6.49293042,21.7880412 5.32481572,20.3617619 C4.47968794,21.6363636 3.75583981,22.9861668 3.11497252,24.3729335 C3.76477621,26.1701218 4.79118519,27.8156326 6.01547152,29.2776007 C7.53210568,29.4076101 9.05895286,29.443299 10.5781403,29.3400562 C10.5909066,29.3719213 10.6164391,29.4343768 10.6279288,29.4662418 C10.8832544,30.0920712 11.1526229,30.7115276 11.4411409,31.3233365 C10.4198384,31.3959888 9.39853593,31.4635426 8.37468021,31.4405998 C7.32912181,31.4265792 6.2873933,31.3513777 5.24566478,31.2519588 C5.18693989,31.2443112 5.06949011,31.2302905 5.01076522,31.2226429 C2.61325768,28.6555951 0.94470478,25.40791 0.316603764,21.9499157 C-0.136599205,19.5052296 -0.103406875,16.9649485 0.442989944,14.5368322 C1.11066643,11.5211246 2.56219256,8.6864105 4.60735074,6.37173383 C7.11337167,3.51535145 10.5219686,1.45559513 14.2267433,0.590140581 L14.2267433,0.590140581 Z M15.8723169,2.34781631 C14.8625041,2.52116214 13.8577978,2.75823805 12.8990501,3.12532334 C11.1781555,3.73585754 9.58237037,4.66759138 8.14999367,5.79433927 C7.34316472,6.47242737 6.56697485,7.19512652 5.90440487,8.01724461 C4.70182122,9.4473477 3.72264748,11.0864855 3.09837635,12.8454358 C3.72903062,14.2576945 4.47330479,15.6202437 5.32609235,16.9126898 C6.46739786,15.5080787 7.75168571,14.220731 9.1061881,13.0277038 C9.96663543,12.3559888 10.7989969,11.6371134 11.7334887,11.0699157 L11.7322121,11.0482474 C11.8751944,10.9539269 12.0156235,10.8557826 12.154776,10.7538144 C12.1573292,10.3331959 12.2620127,9.90875351 12.5032954,9.55951265 C13.0790547,8.65199625 14.4016414,8.37668229 15.2978343,8.96809747 C15.449753,8.89926898 15.6016718,8.82916589 15.7548671,8.76033739 C16.6816991,8.30275539 17.6557664,7.95351453 18.614514,7.57368322 C20.3417918,7.00393627 22.1163049,6.56929709 23.911244,6.2710403 C23.2231414,4.93015933 22.4495048,3.63261481 21.5584184,2.4153702 C19.6843284,2.06867854 17.7553433,2.05720712 15.8723169,2.34781631 L15.8723169,2.34781631 Z M21.7677854,8.78837863 C20.7439297,9.03565136 19.7353935,9.34537957 18.7498366,9.71373946 L18.7906887,9.73030928 C17.9136452,9.96865979 17.0927734,10.409672 16.2540287,10.7665604 C16.1838142,11.337582 15.9450847,11.9086036 15.4778389,12.2680412 C14.8637807,12.7829803 13.949715,12.860731 13.2437397,12.4898219 C12.4049951,13.0519213 11.5726336,13.6305904 10.8117632,14.2972071 C9.94110286,14.9842174 9.13555055,15.7528022 8.36829707,16.5519775 C7.7287064,17.2134958 7.13635097,17.9183505 6.56442159,18.6372259 C7.19252261,19.4274789 7.84487956,20.1998875 8.55851465,20.9149391 L8.55468477,20.9315089 C9.31938499,21.6835239 10.091745,22.4317151 10.9381494,23.0932334 C11.6071025,23.6527835 12.3181844,24.1588004 13.036926,24.649522 C13.6726867,24.2289035 14.5395172,24.2008622 15.195704,24.5908903 C15.8633805,24.9656232 16.2425391,25.7291097 16.2195598,26.4836739 C17.0353251,26.8686036 17.8574736,27.2407873 18.7064313,27.5454171 C19.7073077,27.9226992 20.73244,28.2362512 21.7716153,28.4898969 C22.7495124,28.7320712 23.742729,28.9054171 24.7397756,29.0481724 C25.1291471,28.0871228 25.4789432,27.1095033 25.7546949,26.108941 L25.7687378,26.1025679 C26.0470427,25.0548454 26.2947086,23.9982006 26.4606702,22.9262605 C26.5934396,22.1117901 26.6751437,21.2909466 26.7440817,20.4675539 C26.2155576,20.236851 25.775121,19.798388 25.5874566,19.2490347 C25.2095747,18.2586692 25.7623547,17.0694658 26.7415284,16.6832615 C26.677697,15.8471228 26.5947162,15.0122587 26.4530105,14.1863168 C26.2947086,13.1156514 26.0419362,12.0615558 25.7585248,11.0189316 C25.4789432,10.0719025 25.1585096,9.1388941 24.793394,8.22245548 C23.7759214,8.36138707 22.7635553,8.5372821 21.7677854,8.78837863 L21.7677854,8.78837863 Z M2.28005775,15.8114339 C1.97877353,17.6787254 1.97622027,19.5906279 2.29027078,21.4566448 C2.81624155,20.4853983 3.4098736,19.5536645 4.02520834,18.6359513 C3.40221384,17.7195127 2.82134806,16.777582 2.28005775,15.8114339 Z" id="Shape"></path>
                        </g>
                        <g id="#30303030" opacity="0.19" transform="translate(22.971646, 0.637301)" fill-rule="nonzero" fill="#303030">
                            <path d="M0.0817041972,0.0254920337 C0.270645153,-0.0471602624 0.459586109,0.0560824742 0.643420553,0.0943205248 C2.18048076,0.527685098 3.69456167,1.11272727 5.05034069,1.9628866 C4.56139213,2.50969072 3.87584285,2.82196813 3.34859546,3.327985 C2.89666912,3.12787254 2.46516882,2.81559513 1.95579422,2.81049672 C1.3864181,1.84562324 0.744274171,0.927910028 0.0817041972,0.0254920337 Z" id="Shape"></path>
                        </g>
                        <g id="#33333333" opacity="0.2" transform="translate(6.120155, 2.294283)" fill-rule="nonzero" fill="#333333">
                            <path d="M7.02656096,0.8310403 C7.98530865,0.463955014 8.99001494,0.2268791 9.99982776,0.0535332709 C9.15852985,1.29754452 8.31340206,2.55175258 7.67764128,3.91685098 C9.21214823,4.16284911 10.7262291,4.52865979 12.2020112,5.01683224 C12.394782,5.07546392 12.5722333,5.16978444 12.7420249,5.27940019 C11.7832772,5.65923149 10.80921,6.00847235 9.88237797,6.46605436 C8.86490539,6.1945642 7.82828339,5.98425492 6.78272499,5.85552015 C6.41633273,6.74136832 6.07802629,7.64506092 5.83929684,8.57297095 L5.85972289,8.75396439 L5.86099952,8.77563261 C4.92650776,9.34283037 4.09414625,10.0617057 3.23369893,10.7334208 C3.47881152,8.98084349 4.08648649,7.30729147 4.62650016,5.63119025 C3.09454647,5.53941893 1.55876289,5.57765698 0.031915702,5.72296157 C0.694485676,4.90084349 1.47067555,4.17814433 2.2775045,3.50005623 C3.35114871,3.56378632 4.42989944,3.5484911 5.50354366,3.63516401 C5.99504547,2.69195876 6.48910053,1.75002812 7.02656096,0.8310403 Z" id="Shape"></path>
                        </g>
                        <g id="#2a2a2a2a" opacity="0.16" transform="translate(26.290879, 2.549203)" fill-rule="nonzero" fill="#2A2A2A">
                            <path d="M1.73110768,0.0509840675 L1.75281035,0.0254920337 C3.24774184,0.902417994 4.62011702,1.98710403 5.82014742,3.23621368 C5.93121406,3.36112465 6.07291978,3.4745642 6.11377188,3.64536082 C5.23545176,3.56506092 4.3596849,3.46054358 3.47753489,3.43760075 C2.99752273,3.43250234 2.63368373,3.10875351 2.28005775,2.82834114 C1.57535905,2.28918463 0.801722435,1.84944705 0.0293624459,1.41608247 C0.556609843,0.910065604 1.24215912,0.597788191 1.73110768,0.0509840675 Z" id="Shape"></path>
                        </g>
                        <g id="#28282829" opacity="0.16" transform="translate(8.545748, 8.667291)" fill-rule="nonzero" fill="#282828">
                            <path d="M10.4517541,1.04644799 C11.437311,0.678088097 12.4458472,0.368359888 13.4697029,0.12108716 C14.3761088,0.601611996 15.2901745,1.07194002 16.1518985,1.63276476 C15.6310342,2.14642924 14.9608045,2.46635426 14.4246207,2.96344892 C13.1735252,2.21653233 11.8420021,1.61364574 10.4926062,1.06301781 L10.4517541,1.04644799 Z" id="Shape"></path>
                            <path d="M0.0702145444,7.88468604 C0.837468021,7.08551078 1.64302034,6.31692596 2.51368069,5.62991565 C2.62730059,5.98552952 2.54176651,6.35516401 2.49708453,6.71460169 C2.18303402,9.27655108 2.27239798,11.8754639 2.64006687,14.4259419 C1.79366245,13.7644236 1.02130246,13.0162324 0.256602244,12.2642174 L0.260432128,12.2476476 C0.353625978,12.0016495 0.31277388,11.7378069 0.305114111,11.4828866 C0.229793055,10.2707404 0.248942476,9.05477038 0.315327136,7.84134958 C0.254048988,7.85282099 0.131492692,7.87448922 0.0702145444,7.88468604 Z" id="Shape"></path>
                        </g>
                        <g id="#13131313" opacity="0.07" transform="translate(10.843679, 10.069353)" fill-rule="nonzero" fill="#131313">
                            <path d="M23.3674004,2.81049672 C23.7542187,1.91700094 24.0899719,1.00438613 24.395086,0.0790253046 C25.3193647,1.83415183 25.9129968,3.76007498 26.2078979,5.71913777 C26.1542795,5.95238988 26.2155576,6.28378632 25.9576788,6.40997188 C25.4266015,6.75411434 24.9440361,7.18365511 24.3593404,7.43730084 C24.3031688,6.94657919 24.285296,6.44438613 24.1346539,5.9689597 C23.7286861,6.48772259 23.4631475,7.09825679 23.0865422,7.63613871 C22.905261,7.95606373 22.5809975,8.24539831 22.6231262,8.64434864 C22.3077991,9.12869728 21.7843816,9.38489222 21.295433,9.65638238 C20.457965,10.3153515 19.5438993,10.8723524 18.7294106,11.5606373 C18.5238735,11.7059419 18.285144,11.7938894 18.0553509,11.8945829 C18.1140758,11.4331771 18.1485448,10.9704967 18.1791839,10.5065417 C18.9209048,9.9699344 19.5004939,9.2204686 19.9907191,8.45698219 C19.6115606,7.91782568 19.1277185,7.46279288 18.7421769,6.92746017 C19.2170825,6.44566073 19.9434839,6.23152765 20.2537045,5.59677601 C20.6137136,5.94474227 20.9188277,6.34241799 21.2341549,6.72989691 C22.0882191,5.50755389 22.7316396,4.1552015 23.3674004,2.81049672 Z" id="Shape"></path>
                            <path d="M1.73366093,18.105717 C1.87153677,18.4116214 1.9455812,18.7570384 2.17026774,19.014508 C3.14688822,18.889597 4.12095544,18.707329 5.05800046,18.3976007 C6.00270524,18.851359 6.97804909,19.2452109 7.96743585,19.5944517 C7.84743281,19.6811246 7.71849338,19.7499531 7.57934092,19.7996626 C6.11887839,20.3069541 4.61245726,20.6727648 3.09199321,20.9531771 C3.06901391,21.4107591 3.49923757,21.7650984 3.62690038,22.198463 C3.08433344,22.5770197 2.48048836,22.8740019 2.02090225,23.3608997 C1.55237975,22.7032052 1.23449935,21.9575633 0.845127789,21.2539831 C0.556609843,20.6421743 0.287241318,20.0227179 0.031915702,19.3968885 C0.561716356,18.9138144 1.27024494,18.6627179 1.73366093,18.105717 Z" id="Shape"></path>
                        </g>
                        <g id="#23232323" opacity="0.14" transform="translate(22.843983, 10.196813)" fill-rule="nonzero" fill="#232323">
                            <path d="M1.85366397,0.103242737 C2.3094202,0.304629803 2.65666304,0.7558388 3.16220776,0.822118088 C3.44561919,1.86474227 3.69839155,2.91883786 3.85669343,3.98950328 C2.64645001,3.08963449 1.43365333,2.1910403 0.12638618,1.4339269 C0.662569974,0.93683224 1.33279972,0.616907216 1.85366397,0.103242737 Z" id="Shape"></path>
                        </g>
                        <g id="#19191919" opacity="0.1" transform="translate(28.588809, 13.255858)" fill-rule="nonzero" fill="#191919">
                            <path d="M0.0523417513,0.0981443299 C0.271921781,0.193739456 0.485118671,0.311002812 0.654910205,0.484348641 C1.29067099,1.10890347 1.93792143,1.72453608 2.50857418,2.41027179 C2.19835356,3.04502343 1.47195218,3.25915651 0.997046531,3.74095595 C0.829808252,3.55613871 0.633207528,3.3993627 0.430223663,3.25788191 C0.368945515,2.19741331 0.223409914,1.14459231 0.0523417513,0.0981443299 Z" id="Shape"></path>
                        </g>
                        <g id="#0b0b0b0b" opacity="0.04" transform="translate(32.929345, 15.677601)" fill-rule="nonzero" fill="#0B0B0B">
                            <path d="M4.12223207,0.110890347 C4.40181362,1.40716026 4.36351478,2.76333646 4.3098964,4.08764761 C4.14138149,5.51010309 3.97924973,6.96569822 3.45583221,8.3078538 C3.04220472,7.34807873 2.58261861,6.40997188 2.09622331,5.48461106 C1.91877201,6.46477976 1.69791535,7.44112465 1.35194914,8.37795689 C0.838744649,7.68074977 0.546396819,6.85608247 0.116173155,6.11044049 C0.642143925,5.71403936 1.20386028,5.35715089 1.77961954,5.04232427 C1.85366397,5.09330834 2.00175283,5.19527648 2.07452063,5.24626054 C2.32729299,4.13480787 2.26984473,2.96727273 2.27367461,1.82905342 C2.85837027,1.57540769 3.34093569,1.14586692 3.87201297,0.801724461 C4.12989184,0.675538894 4.06861369,0.344142455 4.12223207,0.110890347 Z" id="Shape"></path>
                        </g>
                        <g id="#0e0e0e0e" opacity="0.05" transform="translate(10.843679, 18.609185)" fill-rule="nonzero" fill="#0E0E0E">
                            <path d="M22.6231262,0.104517338 C23.1350541,0.706129335 23.5167659,1.40588566 23.8652853,2.11074039 C23.2895261,2.42556701 22.7278097,2.78245548 22.201839,3.17885661 C21.9107677,2.70852858 21.6528889,2.21270853 21.2941564,1.78954077 C20.6941412,2.19741331 20.3532815,2.870403 19.819651,3.35220244 C19.1379316,3.97803187 18.5774918,4.75044049 17.7834292,5.23988754 C17.8855594,4.61278351 17.9902429,3.98567948 18.0553509,3.35475164 C18.285144,3.25405811 18.5238735,3.16611059 18.7294106,3.020806 C19.5438993,2.33252109 20.457965,1.77552015 21.295433,1.11655108 C21.7843816,0.845060918 22.3077991,0.588865979 22.6231262,0.104517338 Z" id="Shape"></path>
                            <path d="M3.62690038,13.6586317 C3.92563135,14.0295408 4.1145723,14.4743768 4.38777071,14.8631303 C4.65458598,15.3015933 4.9916158,15.6979944 5.21119583,16.163224 C4.07116695,16.1925398 2.92986145,16.1594002 1.78983257,16.1899906 C1.22045645,16.1797938 0.647250437,16.2346017 0.0817041972,16.1453796 C0.274475037,16.0561575 0.444266572,15.9261481 0.589802173,15.7719213 C0.834914765,15.4953327 1.28556448,15.4647423 1.43492996,15.0963824 C1.67238279,15.1907029 1.91749538,15.2595314 2.16899111,15.3054171 C2.12558575,15.142268 2.07962714,14.979119 2.02090225,14.8210684 C2.48048836,14.3341706 3.08433344,14.0371884 3.62690038,13.6586317 Z" id="Shape"></path>
                        </g>
                        <g id="#0f0f0f0f" opacity="0.06" transform="translate(18.886436, 22.815370)" fill-rule="nonzero" fill="#0F0F0F">
                            <path d="M2.29410066,3.7014433 C4.29074698,2.76078725 6.10738874,1.49000937 7.82190025,0.110890347 C7.6559386,1.18283037 7.40827275,2.23947516 7.12996783,3.28719775 L7.11592492,3.29357076 C6.40484308,3.59437676 5.82908382,4.12333646 5.15374756,4.48659794 C4.4962841,4.9110403 3.74562679,5.18635426 3.13284531,5.67452671 C2.09367005,5.42088097 1.0685377,5.10732896 0.0676612883,4.73004686 C0.802999063,4.37188379 1.57918894,4.10039363 2.29410066,3.7014433 Z" id="Shape"></path>
                        </g>
                        <g id="#1b1b1b1b" opacity="0.11" transform="translate(9.311725, 24.217432)" fill-rule="nonzero" fill="#1B1B1B">
                            <path d="M0.12638618,0.0904967198 C0.97789711,0.791527648 1.84728083,1.47343955 2.77283619,2.07377694 C2.71921781,2.20633552 2.7141113,2.3388941 2.75624003,2.47272727 C2.90815877,2.97364574 3.07922693,3.46819119 3.26561463,3.95763824 C2.80219864,4.51463918 2.09367005,4.76573571 1.5638694,5.24880975 C1.55237975,5.2169447 1.52684718,5.15448922 1.5140809,5.12262418 C0.971513969,3.68614808 0.49916158,2.22035614 0.168514907,0.720149953 C0.130216064,0.512389878 0.130216064,0.299531396 0.12638618,0.0904967198 Z" id="Shape"></path>
                        </g>
                        <g id="#14141414" opacity="0.08" transform="translate(5.481841, 31.227741)" fill-rule="nonzero" fill="#141414">
                            <path d="M0.0114896527,0.0242174321 C1.05321817,0.123636364 2.09494668,0.198837863 3.14050508,0.212858482 C3.63966666,0.744367385 4.28564047,1.09870665 4.89586869,1.48618557 C5.49971377,1.86984067 6.14441095,2.18594189 6.7967679,2.47782568 C6.64740242,2.84618557 6.1967527,2.87677601 5.95164011,3.15336457 C5.80610451,3.30759138 5.63631298,3.43760075 5.44354214,3.52682287 C4.973743,3.5535895 4.45032549,3.63898782 4.03797462,3.35475164 C2.58517186,2.51733833 1.21534993,1.5078538 0.0663846602,0.284236176 C0.0523417513,0.21923149 0.0255325616,0.0892221181 0.0114896527,0.0242174321 Z" id="Shape"></path>
                        </g>
                    </g>
                </g>
                <g id="BTU-Copy-4" transform="translate(48.000000, 37.000000)">
                    <g id="Rectangle-2-Copy">
                        <g id="path-5-link" fill-rule="nonzero" fill="#000000">
                            <rect id="path-5" x="0" y="0" width="49.5331695" height="49.4545455" rx="24.7272727"></rect>
                        </g>
                        <g id="path-5-link" fill="#654785">
                            <rect id="path-5" x="0" y="0" width="49.5331695" height="49.4545455" rx="24.7272727"></rect>
                        </g>
                        <rect id="Rectangle-path" stroke="#AE7FD9" stroke-width="2" x="-1.11022302e-16" y="0" width="49.5331695" height="49.4545455" rx="23.7272727"></rect>
                    </g>
                    <g id="logo" transform="translate(6.191646, 6.181818)">
                        <ellipse id="Oval-3" cx="18.6987715" cy="18.6690909" rx="18.6987715" ry="18.6690909"></ellipse>
                        <g id="#ffffffff" transform="translate(0.247666, 0.000000)" fill-rule="nonzero" fill="#AE7FD9">
                            <path d="M14.2267433,0.590140581 C17.0123458,-0.0764761012 19.9473138,-0.0599062793 22.7380227,0.567197751 C22.7546189,0.591415183 22.7878112,0.638575445 22.805684,0.662792877 C23.468254,1.56521087 24.1103979,2.48292409 24.6797741,3.44779756 C25.1891487,4.28648547 25.6346919,5.15958763 26.0661922,6.04033739 C27.2151574,5.97278351 28.3692292,5.91925023 29.5207477,5.98680412 C30.4028977,6.00974695 31.2786646,6.11426429 32.1569847,6.1945642 L32.2603916,6.20093721 C33.3353124,7.39396439 34.2519314,8.72464855 34.9910991,10.1483786 C34.685985,11.0737395 34.3502318,11.9863543 33.9634135,12.87985 C33.3174397,11.1718838 32.3918843,9.57990628 31.2505788,8.15490159 C29.8118189,7.99430178 28.3602928,7.97263355 26.9138732,8.03253983 C27.5675068,9.75707591 28.057732,11.5402437 28.3934851,13.3540019 C28.5645533,14.4004499 28.7100889,15.4532709 28.7713671,16.5137395 C28.6475341,17.0541706 29.2079739,17.2810497 29.3637225,17.7309841 C29.7530941,18.5467291 29.4952152,19.5740581 28.8096659,20.1514527 C28.8007295,20.2585192 28.7841333,20.4701031 28.7751969,20.575895 C28.7445579,21.03985 28.7100889,21.5025305 28.651364,21.9639363 C28.586256,22.5948641 28.4815725,23.2219681 28.3794422,23.8490722 C28.043689,25.6883224 27.5330378,27.4931584 26.866638,29.2406373 C28.2862484,29.305642 29.7071354,29.2737769 31.1216394,29.142493 C32.3803946,27.6346392 33.3825477,25.9101031 34.033628,24.0555576 C34.3795942,23.1187254 34.6004509,22.1423805 34.7779022,21.1622118 C35.2642975,22.0875726 35.7238836,23.0256795 36.1375111,23.9854545 L36.1834697,24.0874227 C35.3332354,26.7513402 33.9008587,29.2584817 31.9437878,31.2583318 C29.9726741,31.2710778 27.9964538,31.3947142 26.0291699,31.2213683 C25.5555409,32.1033927 25.1112743,33.0019869 24.5904101,33.8585192 C23.6788976,34.2128585 22.740576,34.4945455 21.7831049,34.6908341 L21.5635249,34.739269 C22.4137592,33.542418 23.1873958,32.2907591 23.8537957,30.9830178 C22.0563034,30.697507 20.2805137,30.2679663 18.5634489,29.6638051 C17.5740622,29.3145642 16.5987183,28.9207123 15.6540135,28.4669541 C15.4548595,28.3700843 15.2557056,28.2770384 15.0565516,28.1839925 C14.4871755,28.4376382 13.8054561,28.4580319 13.2475696,28.1623243 C12.6232985,27.8513215 12.1969047,27.2038238 12.1381798,26.5129897 C12.0628587,26.4581818 11.9122166,26.3472915 11.8368956,26.291209 C10.9113402,25.6908716 10.0419565,25.0089597 9.19044555,24.3079288 C7.78998455,23.107254 6.49293042,21.7880412 5.32481572,20.3617619 C4.47968794,21.6363636 3.75583981,22.9861668 3.11497252,24.3729335 C3.76477621,26.1701218 4.79118519,27.8156326 6.01547152,29.2776007 C7.53210568,29.4076101 9.05895286,29.443299 10.5781403,29.3400562 C10.5909066,29.3719213 10.6164391,29.4343768 10.6279288,29.4662418 C10.8832544,30.0920712 11.1526229,30.7115276 11.4411409,31.3233365 C10.4198384,31.3959888 9.39853593,31.4635426 8.37468021,31.4405998 C7.32912181,31.4265792 6.2873933,31.3513777 5.24566478,31.2519588 C5.18693989,31.2443112 5.06949011,31.2302905 5.01076522,31.2226429 C2.61325768,28.6555951 0.94470478,25.40791 0.316603764,21.9499157 C-0.136599205,19.5052296 -0.103406875,16.9649485 0.442989944,14.5368322 C1.11066643,11.5211246 2.56219256,8.6864105 4.60735074,6.37173383 C7.11337167,3.51535145 10.5219686,1.45559513 14.2267433,0.590140581 L14.2267433,0.590140581 Z M15.8723169,2.34781631 C14.8625041,2.52116214 13.8577978,2.75823805 12.8990501,3.12532334 C11.1781555,3.73585754 9.58237037,4.66759138 8.14999367,5.79433927 C7.34316472,6.47242737 6.56697485,7.19512652 5.90440487,8.01724461 C4.70182122,9.4473477 3.72264748,11.0864855 3.09837635,12.8454358 C3.72903062,14.2576945 4.47330479,15.6202437 5.32609235,16.9126898 C6.46739786,15.5080787 7.75168571,14.220731 9.1061881,13.0277038 C9.96663543,12.3559888 10.7989969,11.6371134 11.7334887,11.0699157 L11.7322121,11.0482474 C11.8751944,10.9539269 12.0156235,10.8557826 12.154776,10.7538144 C12.1573292,10.3331959 12.2620127,9.90875351 12.5032954,9.55951265 C13.0790547,8.65199625 14.4016414,8.37668229 15.2978343,8.96809747 C15.449753,8.89926898 15.6016718,8.82916589 15.7548671,8.76033739 C16.6816991,8.30275539 17.6557664,7.95351453 18.614514,7.57368322 C20.3417918,7.00393627 22.1163049,6.56929709 23.911244,6.2710403 C23.2231414,4.93015933 22.4495048,3.63261481 21.5584184,2.4153702 C19.6843284,2.06867854 17.7553433,2.05720712 15.8723169,2.34781631 L15.8723169,2.34781631 Z M21.7677854,8.78837863 C20.7439297,9.03565136 19.7353935,9.34537957 18.7498366,9.71373946 L18.7906887,9.73030928 C17.9136452,9.96865979 17.0927734,10.409672 16.2540287,10.7665604 C16.1838142,11.337582 15.9450847,11.9086036 15.4778389,12.2680412 C14.8637807,12.7829803 13.949715,12.860731 13.2437397,12.4898219 C12.4049951,13.0519213 11.5726336,13.6305904 10.8117632,14.2972071 C9.94110286,14.9842174 9.13555055,15.7528022 8.36829707,16.5519775 C7.7287064,17.2134958 7.13635097,17.9183505 6.56442159,18.6372259 C7.19252261,19.4274789 7.84487956,20.1998875 8.55851465,20.9149391 L8.55468477,20.9315089 C9.31938499,21.6835239 10.091745,22.4317151 10.9381494,23.0932334 C11.6071025,23.6527835 12.3181844,24.1588004 13.036926,24.649522 C13.6726867,24.2289035 14.5395172,24.2008622 15.195704,24.5908903 C15.8633805,24.9656232 16.2425391,25.7291097 16.2195598,26.4836739 C17.0353251,26.8686036 17.8574736,27.2407873 18.7064313,27.5454171 C19.7073077,27.9226992 20.73244,28.2362512 21.7716153,28.4898969 C22.7495124,28.7320712 23.742729,28.9054171 24.7397756,29.0481724 C25.1291471,28.0871228 25.4789432,27.1095033 25.7546949,26.108941 L25.7687378,26.1025679 C26.0470427,25.0548454 26.2947086,23.9982006 26.4606702,22.9262605 C26.5934396,22.1117901 26.6751437,21.2909466 26.7440817,20.4675539 C26.2155576,20.236851 25.775121,19.798388 25.5874566,19.2490347 C25.2095747,18.2586692 25.7623547,17.0694658 26.7415284,16.6832615 C26.677697,15.8471228 26.5947162,15.0122587 26.4530105,14.1863168 C26.2947086,13.1156514 26.0419362,12.0615558 25.7585248,11.0189316 C25.4789432,10.0719025 25.1585096,9.1388941 24.793394,8.22245548 C23.7759214,8.36138707 22.7635553,8.5372821 21.7677854,8.78837863 L21.7677854,8.78837863 Z M2.28005775,15.8114339 C1.97877353,17.6787254 1.97622027,19.5906279 2.29027078,21.4566448 C2.81624155,20.4853983 3.4098736,19.5536645 4.02520834,18.6359513 C3.40221384,17.7195127 2.82134806,16.777582 2.28005775,15.8114339 Z" id="Shape"></path>
                        </g>
                        <g id="#30303030" opacity="0.19" transform="translate(22.971646, 0.637301)" fill-rule="nonzero" fill="#303030">
                            <path d="M0.0817041972,0.0254920337 C0.270645153,-0.0471602624 0.459586109,0.0560824742 0.643420553,0.0943205248 C2.18048076,0.527685098 3.69456167,1.11272727 5.05034069,1.9628866 C4.56139213,2.50969072 3.87584285,2.82196813 3.34859546,3.327985 C2.89666912,3.12787254 2.46516882,2.81559513 1.95579422,2.81049672 C1.3864181,1.84562324 0.744274171,0.927910028 0.0817041972,0.0254920337 Z" id="Shape"></path>
                        </g>
                        <g id="#33333333" opacity="0.2" transform="translate(6.120155, 2.294283)" fill-rule="nonzero" fill="#333333">
                            <path d="M7.02656096,0.8310403 C7.98530865,0.463955014 8.99001494,0.2268791 9.99982776,0.0535332709 C9.15852985,1.29754452 8.31340206,2.55175258 7.67764128,3.91685098 C9.21214823,4.16284911 10.7262291,4.52865979 12.2020112,5.01683224 C12.394782,5.07546392 12.5722333,5.16978444 12.7420249,5.27940019 C11.7832772,5.65923149 10.80921,6.00847235 9.88237797,6.46605436 C8.86490539,6.1945642 7.82828339,5.98425492 6.78272499,5.85552015 C6.41633273,6.74136832 6.07802629,7.64506092 5.83929684,8.57297095 L5.85972289,8.75396439 L5.86099952,8.77563261 C4.92650776,9.34283037 4.09414625,10.0617057 3.23369893,10.7334208 C3.47881152,8.98084349 4.08648649,7.30729147 4.62650016,5.63119025 C3.09454647,5.53941893 1.55876289,5.57765698 0.031915702,5.72296157 C0.694485676,4.90084349 1.47067555,4.17814433 2.2775045,3.50005623 C3.35114871,3.56378632 4.42989944,3.5484911 5.50354366,3.63516401 C5.99504547,2.69195876 6.48910053,1.75002812 7.02656096,0.8310403 Z" id="Shape"></path>
                        </g>
                        <g id="#2a2a2a2a" opacity="0.16" transform="translate(26.290879, 2.549203)" fill-rule="nonzero" fill="#2A2A2A">
                            <path d="M1.73110768,0.0509840675 L1.75281035,0.0254920337 C3.24774184,0.902417994 4.62011702,1.98710403 5.82014742,3.23621368 C5.93121406,3.36112465 6.07291978,3.4745642 6.11377188,3.64536082 C5.23545176,3.56506092 4.3596849,3.46054358 3.47753489,3.43760075 C2.99752273,3.43250234 2.63368373,3.10875351 2.28005775,2.82834114 C1.57535905,2.28918463 0.801722435,1.84944705 0.0293624459,1.41608247 C0.556609843,0.910065604 1.24215912,0.597788191 1.73110768,0.0509840675 Z" id="Shape"></path>
                        </g>
                        <g id="#28282829" opacity="0.16" transform="translate(8.545748, 8.667291)" fill-rule="nonzero" fill="#282828">
                            <path d="M10.4517541,1.04644799 C11.437311,0.678088097 12.4458472,0.368359888 13.4697029,0.12108716 C14.3761088,0.601611996 15.2901745,1.07194002 16.1518985,1.63276476 C15.6310342,2.14642924 14.9608045,2.46635426 14.4246207,2.96344892 C13.1735252,2.21653233 11.8420021,1.61364574 10.4926062,1.06301781 L10.4517541,1.04644799 Z" id="Shape"></path>
                            <path d="M0.0702145444,7.88468604 C0.837468021,7.08551078 1.64302034,6.31692596 2.51368069,5.62991565 C2.62730059,5.98552952 2.54176651,6.35516401 2.49708453,6.71460169 C2.18303402,9.27655108 2.27239798,11.8754639 2.64006687,14.4259419 C1.79366245,13.7644236 1.02130246,13.0162324 0.256602244,12.2642174 L0.260432128,12.2476476 C0.353625978,12.0016495 0.31277388,11.7378069 0.305114111,11.4828866 C0.229793055,10.2707404 0.248942476,9.05477038 0.315327136,7.84134958 C0.254048988,7.85282099 0.131492692,7.87448922 0.0702145444,7.88468604 Z" id="Shape"></path>
                        </g>
                        <g id="#13131313" opacity="0.07" transform="translate(10.843679, 10.069353)" fill-rule="nonzero" fill="#131313">
                            <path d="M23.3674004,2.81049672 C23.7542187,1.91700094 24.0899719,1.00438613 24.395086,0.0790253046 C25.3193647,1.83415183 25.9129968,3.76007498 26.2078979,5.71913777 C26.1542795,5.95238988 26.2155576,6.28378632 25.9576788,6.40997188 C25.4266015,6.75411434 24.9440361,7.18365511 24.3593404,7.43730084 C24.3031688,6.94657919 24.285296,6.44438613 24.1346539,5.9689597 C23.7286861,6.48772259 23.4631475,7.09825679 23.0865422,7.63613871 C22.905261,7.95606373 22.5809975,8.24539831 22.6231262,8.64434864 C22.3077991,9.12869728 21.7843816,9.38489222 21.295433,9.65638238 C20.457965,10.3153515 19.5438993,10.8723524 18.7294106,11.5606373 C18.5238735,11.7059419 18.285144,11.7938894 18.0553509,11.8945829 C18.1140758,11.4331771 18.1485448,10.9704967 18.1791839,10.5065417 C18.9209048,9.9699344 19.5004939,9.2204686 19.9907191,8.45698219 C19.6115606,7.91782568 19.1277185,7.46279288 18.7421769,6.92746017 C19.2170825,6.44566073 19.9434839,6.23152765 20.2537045,5.59677601 C20.6137136,5.94474227 20.9188277,6.34241799 21.2341549,6.72989691 C22.0882191,5.50755389 22.7316396,4.1552015 23.3674004,2.81049672 Z" id="Shape"></path>
                            <path d="M1.73366093,18.105717 C1.87153677,18.4116214 1.9455812,18.7570384 2.17026774,19.014508 C3.14688822,18.889597 4.12095544,18.707329 5.05800046,18.3976007 C6.00270524,18.851359 6.97804909,19.2452109 7.96743585,19.5944517 C7.84743281,19.6811246 7.71849338,19.7499531 7.57934092,19.7996626 C6.11887839,20.3069541 4.61245726,20.6727648 3.09199321,20.9531771 C3.06901391,21.4107591 3.49923757,21.7650984 3.62690038,22.198463 C3.08433344,22.5770197 2.48048836,22.8740019 2.02090225,23.3608997 C1.55237975,22.7032052 1.23449935,21.9575633 0.845127789,21.2539831 C0.556609843,20.6421743 0.287241318,20.0227179 0.031915702,19.3968885 C0.561716356,18.9138144 1.27024494,18.6627179 1.73366093,18.105717 Z" id="Shape"></path>
                        </g>
                        <g id="#23232323" opacity="0.14" transform="translate(22.843983, 10.196813)" fill-rule="nonzero" fill="#232323">
                            <path d="M1.85366397,0.103242737 C2.3094202,0.304629803 2.65666304,0.7558388 3.16220776,0.822118088 C3.44561919,1.86474227 3.69839155,2.91883786 3.85669343,3.98950328 C2.64645001,3.08963449 1.43365333,2.1910403 0.12638618,1.4339269 C0.662569974,0.93683224 1.33279972,0.616907216 1.85366397,0.103242737 Z" id="Shape"></path>
                        </g>
                        <g id="#19191919" opacity="0.1" transform="translate(28.588809, 13.255858)" fill-rule="nonzero" fill="#191919">
                            <path d="M0.0523417513,0.0981443299 C0.271921781,0.193739456 0.485118671,0.311002812 0.654910205,0.484348641 C1.29067099,1.10890347 1.93792143,1.72453608 2.50857418,2.41027179 C2.19835356,3.04502343 1.47195218,3.25915651 0.997046531,3.74095595 C0.829808252,3.55613871 0.633207528,3.3993627 0.430223663,3.25788191 C0.368945515,2.19741331 0.223409914,1.14459231 0.0523417513,0.0981443299 Z" id="Shape"></path>
                        </g>
                        <g id="#0b0b0b0b" opacity="0.04" transform="translate(32.929345, 15.677601)" fill-rule="nonzero" fill="#0B0B0B">
                            <path d="M4.12223207,0.110890347 C4.40181362,1.40716026 4.36351478,2.76333646 4.3098964,4.08764761 C4.14138149,5.51010309 3.97924973,6.96569822 3.45583221,8.3078538 C3.04220472,7.34807873 2.58261861,6.40997188 2.09622331,5.48461106 C1.91877201,6.46477976 1.69791535,7.44112465 1.35194914,8.37795689 C0.838744649,7.68074977 0.546396819,6.85608247 0.116173155,6.11044049 C0.642143925,5.71403936 1.20386028,5.35715089 1.77961954,5.04232427 C1.85366397,5.09330834 2.00175283,5.19527648 2.07452063,5.24626054 C2.32729299,4.13480787 2.26984473,2.96727273 2.27367461,1.82905342 C2.85837027,1.57540769 3.34093569,1.14586692 3.87201297,0.801724461 C4.12989184,0.675538894 4.06861369,0.344142455 4.12223207,0.110890347 Z" id="Shape"></path>
                        </g>
                        <g id="#0e0e0e0e" opacity="0.05" transform="translate(10.843679, 18.609185)" fill-rule="nonzero" fill="#0E0E0E">
                            <path d="M22.6231262,0.104517338 C23.1350541,0.706129335 23.5167659,1.40588566 23.8652853,2.11074039 C23.2895261,2.42556701 22.7278097,2.78245548 22.201839,3.17885661 C21.9107677,2.70852858 21.6528889,2.21270853 21.2941564,1.78954077 C20.6941412,2.19741331 20.3532815,2.870403 19.819651,3.35220244 C19.1379316,3.97803187 18.5774918,4.75044049 17.7834292,5.23988754 C17.8855594,4.61278351 17.9902429,3.98567948 18.0553509,3.35475164 C18.285144,3.25405811 18.5238735,3.16611059 18.7294106,3.020806 C19.5438993,2.33252109 20.457965,1.77552015 21.295433,1.11655108 C21.7843816,0.845060918 22.3077991,0.588865979 22.6231262,0.104517338 Z" id="Shape"></path>
                            <path d="M3.62690038,13.6586317 C3.92563135,14.0295408 4.1145723,14.4743768 4.38777071,14.8631303 C4.65458598,15.3015933 4.9916158,15.6979944 5.21119583,16.163224 C4.07116695,16.1925398 2.92986145,16.1594002 1.78983257,16.1899906 C1.22045645,16.1797938 0.647250437,16.2346017 0.0817041972,16.1453796 C0.274475037,16.0561575 0.444266572,15.9261481 0.589802173,15.7719213 C0.834914765,15.4953327 1.28556448,15.4647423 1.43492996,15.0963824 C1.67238279,15.1907029 1.91749538,15.2595314 2.16899111,15.3054171 C2.12558575,15.142268 2.07962714,14.979119 2.02090225,14.8210684 C2.48048836,14.3341706 3.08433344,14.0371884 3.62690038,13.6586317 Z" id="Shape"></path>
                        </g>
                        <g id="#0f0f0f0f" opacity="0.06" transform="translate(18.886436, 22.815370)" fill-rule="nonzero" fill="#0F0F0F">
                            <path d="M2.29410066,3.7014433 C4.29074698,2.76078725 6.10738874,1.49000937 7.82190025,0.110890347 C7.6559386,1.18283037 7.40827275,2.23947516 7.12996783,3.28719775 L7.11592492,3.29357076 C6.40484308,3.59437676 5.82908382,4.12333646 5.15374756,4.48659794 C4.4962841,4.9110403 3.74562679,5.18635426 3.13284531,5.67452671 C2.09367005,5.42088097 1.0685377,5.10732896 0.0676612883,4.73004686 C0.802999063,4.37188379 1.57918894,4.10039363 2.29410066,3.7014433 Z" id="Shape"></path>
                        </g>
                        <g id="#1b1b1b1b" opacity="0.11" transform="translate(9.311725, 24.217432)" fill-rule="nonzero" fill="#1B1B1B">
                            <path d="M0.12638618,0.0904967198 C0.97789711,0.791527648 1.84728083,1.47343955 2.77283619,2.07377694 C2.71921781,2.20633552 2.7141113,2.3388941 2.75624003,2.47272727 C2.90815877,2.97364574 3.07922693,3.46819119 3.26561463,3.95763824 C2.80219864,4.51463918 2.09367005,4.76573571 1.5638694,5.24880975 C1.55237975,5.2169447 1.52684718,5.15448922 1.5140809,5.12262418 C0.971513969,3.68614808 0.49916158,2.22035614 0.168514907,0.720149953 C0.130216064,0.512389878 0.130216064,0.299531396 0.12638618,0.0904967198 Z" id="Shape"></path>
                        </g>
                        <g id="#14141414" opacity="0.08" transform="translate(5.481841, 31.227741)" fill-rule="nonzero" fill="#141414">
                            <path d="M0.0114896527,0.0242174321 C1.05321817,0.123636364 2.09494668,0.198837863 3.14050508,0.212858482 C3.63966666,0.744367385 4.28564047,1.09870665 4.89586869,1.48618557 C5.49971377,1.86984067 6.14441095,2.18594189 6.7967679,2.47782568 C6.64740242,2.84618557 6.1967527,2.87677601 5.95164011,3.15336457 C5.80610451,3.30759138 5.63631298,3.43760075 5.44354214,3.52682287 C4.973743,3.5535895 4.45032549,3.63898782 4.03797462,3.35475164 C2.58517186,2.51733833 1.21534993,1.5078538 0.0663846602,0.284236176 C0.0523417513,0.21923149 0.0255325616,0.0892221181 0.0114896527,0.0242174321 Z" id="Shape"></path>
                        </g>
                    </g>
                </g>
                <g id="tick7" transform="translate(8.000000, 10.000000)" fill-rule="nonzero" fill="#654785">
                    <polygon id="Shape" points="2.62958843 9.27430478 0.387096774 11.5167964 7.59510567 18.7248053 23.6129032 2.70700779 21.3704116 0.464516129 7.59510567 14.239822"></polygon>
                </g>
            </g>
        </g>
    </g>
</svg>