<svg xmlns="http://www.w3.org/2000/svg" width="70" height="70" viewBox="0 0 70 70" style="width: 100%; height: 100%;"><desc>Made with illustrio</desc>
  
<g class="base"><g fill="none" fill-rule="evenodd" stroke="none" class="main-fill">
    
    <polygon fill="none" points="31.077 4.974 29.664 4.974 29.664 2.855 26.839 1.442 26.839 .03 22.601 .03 22.601 4.267 8.475 4.267 8.475 .03 4.238 .03 4.238 1.442 1.413 2.855 1.413 4.974 0 4.974 0 6.386 1.413 6.386 1.413 8.505 4.238 9.918 4.238 11.33 8.475 11.33 8.475 7.093 22.601 7.093 22.601 11.33 26.839 11.33 26.839 9.918 29.664 8.505 29.664 6.386 31.077 6.386" transform="translate(19.425 29.283)" stroke="none" class="main-fill"></polygon>
  </g></g><style>
          .main-fill {fill: #040404;}
          .main-stroke {stroke: #040404;}
          .secondary-fill {fill: ;}
          .secondary-stroke {stroke: ;}

          .main-fill--darken {fill: #000000;}
          .main-stroke--darken {stroke: #000000;}
          .secondary-fill--darken {fill: #000000;}
          .secondary-stroke--darken {stroke: #000000;}

          .main-fill--darkener {fill: #000000;}
          .main-stroke--darkener {stroke: #000000;}
          .secondary-fill--darkener {fill: #000000;}
          .secondary-stroke--darkener {stroke: #000000;}
        </style></svg>