<svg xmlns="http://www.w3.org/2000/svg" width="70" height="70" viewBox="0 0 70 70" style="width: 100%; height: 100%;"><desc>Made with illustrio</desc>
  
<g class="base"><g fill="none" fill-rule="evenodd" stroke="none" class="main-fill">
    
    
  </g><g fill="none" transform="translate(24.182 19.727)" stroke="none" class="main-fill">
      <path d="M8.90909091 6.36363636C10.6635455 6.36363636 12.0909091 4.93627273 12.0909091 3.18181818 12.0909091 1.42736364 10.6635455 0 8.90909091 0 7.15463636 0 5.72727273 1.42736364 5.72727273 3.18181818 5.72727273 4.93627273 7.15463636 6.36363636 8.90909091 6.36363636L8.90909091 6.36363636zM21.5924545 25.858C21.5708182 25.802 19.3906364 20.2490909 19.0832727 18.3527273 18.9076364 17.2721818 18.1433636 16.5454545 17.1818182 16.5454545L12.7272727 16.5454545 12.7272727 13.6099091 15.708 14.6039091C15.7729091 14.6255455 15.841 14.6363636 15.9090909 14.6363636 16.9616364 14.6363636 17.8181818 13.7798182 17.8181818 12.7272727 17.8181818 11.7129091 17.0227273 10.8805455 16.0223636 10.8213636L12.572 9.67081818 12.0870909 8.45790909C12.0641818 8.07481818 11.9413636 7.70381818 11.7294545 7.378 11.5525455 7.10627273 11.1987273 7.01081818 10.9091818 7.15654545 10.7539091 7.23481818 10.6253636 7.30545455 10.5108182 7.36909091 10.1410909 7.57463636 10.0290909 7.63636364 9.54545455 7.63636364 8.84863636 7.63636364 8.17536364 7.47536364 7.54472727 7.15718182 7.25390909 7.01145455 6.90136364 7.10690909 6.72445455 7.37863636 6.48772727 7.742 6.363 8.16136364 6.36427273 8.63227273 6.40627273 9.28518182 6.45654545 10.0545455 6.50936364 10.8703636 2.61036364 12.3804545 0 16.1687273 0 20.3636364 0 25.9776364 4.56781818 30.5454545 10.1818182 30.5454545 13.2541818 30.5454545 16.1101818 29.1791818 18.0358182 26.8424545 18.3673636 27.559 18.9833636 28 19.7272727 28 20.7798182 28 21.6363636 27.1434545 21.6363636 26.0909091 21.6363636 26.0113636 21.6217273 25.9324545 21.5924545 25.858L21.5924545 25.858zM10.1818182 29.2727273C5.26909091 29.2727273 1.27272727 25.2763636 1.27272727 20.3636364 1.27272727 16.828 3.39181818 13.6213636 6.59718182 12.2099091 6.79190909 15.218 6.99363636 18.3431818 7 18.4545455 7 19.5070909 7.85654545 20.3636364 8.90909091 20.3636364L15.505 20.3636364C16.0681818 21.574 17.0825455 23.8496364 17.577 25.3183636 15.9154545 27.7938182 13.167 29.2727273 10.1818182 29.2727273L10.1818182 29.2727273z" fill="none" stroke="none" class="main-fill"></path>
    </g></g><style>
          .main-fill {fill: #000000;}
          .main-stroke {stroke: #000000;}
          .secondary-fill {fill: ;}
          .secondary-stroke {stroke: ;}

          .main-fill--darken {fill: #000000;}
          .main-stroke--darken {stroke: #000000;}
          .secondary-fill--darken {fill: #000000;}
          .secondary-stroke--darken {stroke: #000000;}

          .main-fill--darkener {fill: #000000;}
          .main-stroke--darkener {stroke: #000000;}
          .secondary-fill--darkener {fill: #000000;}
          .secondary-stroke--darkener {stroke: #000000;}
        </style></svg>