<svg xmlns="http://www.w3.org/2000/svg" width="70" height="70" viewBox="0 0 70 70" style="width: 100%; height: 100%;"><desc>Made with illustrio</desc>
  
<g class="base"><g fill="none" fill-rule="evenodd" stroke="none" class="main-fill">
    
    
  </g><g fill="none" transform="translate(20 25)" stroke="none" class="main-fill">
      <path d="M8.2 15.5C8.1 15.6 8 15.8 8 16 8 16.2 8.1 16.4 8.2 16.5 8.3 16.6 8.5 16.7 8.7 16.7 8.9 16.7 9.1 16.6 9.2 16.5 9.3 16.4 9.4 16.2 9.4 16 9.4 15.8 9.3 15.6 9.2 15.5 8.9 15.2 8.5 15.2 8.2 15.5L8.2 15.5zM23.2 15.5C23.1 15.6 23 15.8 23 16 23 16.2 23.1 16.4 23.2 16.5 23.3 16.6 23.5 16.7 23.7 16.7 23.9 16.7 24.1 16.6 24.2 16.5 24.3 16.4 24.4 16.2 24.4 16 24.4 15.8 24.3 15.6 24.2 15.5 23.9 15.2 23.5 15.2 23.2 15.5L23.2 15.5z" fill="none" stroke="none" class="main-fill"></path>
      <path d="M30,12.3 C29.9,8.5 27.4,0.3 23.4,0.3 L0.7,0.3 C0.3,0.3 0,0.6 0,1 L0,16 C0,16.4 0.3,16.7 0.7,16.7 L4.1,16.7 C4.2,16.7 4.3,16.7 4.4,16.6 C4.7,18.4 6.2,19.8 8.1,19.8 C10,19.8 11.6,18.4 11.8,16.6 C11.9,16.7 12.1,16.8 12.2,16.8 L19,16.8 C19.2,16.8 19.3,16.7 19.4,16.6 C19.7,18.3 21.2,19.6 23,19.6 C24.8,19.6 26.3,18.3 26.6,16.6 C26.7,16.6 26.8,16.7 26.9,16.7 L29.2,16.7 C29.6,16.7 29.9,16.4 29.9,16 L30,12.3 L30,12.3 L30,12.3 Z M4.1,8.5 L1.4,8.5 L1.4,1.7 L4.1,1.7 L4.1,8.5 L4.1,8.5 Z M5.5,8.5 L5.5,1.7 L9.6,1.7 L9.6,8.5 L5.5,8.5 L5.5,8.5 Z M8.1,18.4 C6.8,18.4 5.7,17.3 5.7,16 C5.7,14.7 6.8,13.6 8.1,13.6 C9.4,13.6 10.5,14.7 10.5,16 C10.5,17.3 9.5,18.4 8.1,18.4 L8.1,18.4 Z M15,8.5 L10.9,8.5 L10.9,1.7 L15,1.7 L15,8.5 L15,8.5 Z M20.5,8.5 L16.4,8.5 L16.4,1.7 L20.5,1.7 L20.5,8.5 L20.5,8.5 Z M23.1,18.2 C21.8,18.2 20.8,17.2 20.8,15.9 C20.8,14.6 21.8,13.6 23.1,13.6 C24.4,13.6 25.4,14.6 25.4,15.9 C25.4,17.2 24.4,18.2 23.1,18.2 L23.1,18.2 Z M21.8,8.5 L21.8,1.7 L23.4,1.7 C25.2,1.7 27,5.2 27.9,8.5 L21.8,8.5 L21.8,8.5 Z" fill="none" stroke="none" class="main-fill"></path>
    </g></g><style>
          .main-fill {fill: #040404;}
          .main-stroke {stroke: #040404;}
          .secondary-fill {fill: ;}
          .secondary-stroke {stroke: ;}

          .main-fill--darken {fill: #000000;}
          .main-stroke--darken {stroke: #000000;}
          .secondary-fill--darken {fill: #000000;}
          .secondary-stroke--darken {stroke: #000000;}

          .main-fill--darkener {fill: #000000;}
          .main-stroke--darkener {stroke: #000000;}
          .secondary-fill--darkener {fill: #000000;}
          .secondary-stroke--darkener {stroke: #000000;}
        </style></svg>