<svg xmlns="http://www.w3.org/2000/svg" width="70" height="70" viewBox="0 0 70 70" style="width: 100%; height: 100%;"><desc>Made with illustrio</desc>
  
<g class="base"><g fill="none" fill-rule="evenodd" stroke="none" class="main-fill">
    
    
  </g><g fill="none" transform="translate(21.636 21.636)" stroke="none" class="main-fill">
      <path d="M22.2727273 8.90909091L1.90909091 8.90909091C1.55781818 8.90909091 1.27272727 9.19418182 1.27272727 9.54545455L1.27272727 17.1818182C1.27272727 20.7193636 3.21045455 23.8050909 6.076 25.4545455L.636363636 25.4545455C.285090909 25.4545455 0 25.739 0 26.0909091 0 26.4428182.285090909 26.7272727.636363636 26.7272727L21 26.7272727C21.3519091 26.7272727 21.6363636 26.4428182 21.6363636 26.0909091 21.6363636 25.739 21.3519091 25.4545455 21 25.4545455L15.5603636 25.4545455C18.2515455 23.9056364 20.1141818 21.0865455 20.3311818 17.8181818L22.2727273 17.8181818C24.7284545 17.8181818 26.7272727 15.8193636 26.7272727 13.3636364 26.7272727 10.9072727 24.7284545 8.90909091 22.2727273 8.90909091L22.2727273 8.90909091zM22.2727273 16.5454545L20.3636364 16.5454545 20.3636364 10.1818182 22.2727273 10.1818182C24.0271818 10.1818182 25.4545455 11.6091818 25.4545455 13.3636364 25.4545455 15.1180909 24.0271818 16.5454545 22.2727273 16.5454545L22.2727273 16.5454545zM5.72727273 6.36363636C6.07854545 6.36363636 6.36363636 6.07854545 6.36363636 5.72727273L6.36363636 3.18181818C6.36363636 2.83054545 6.07854545 2.54545455 5.72727273 2.54545455 5.376 2.54545455 5.09090909 2.83054545 5.09090909 3.18181818L5.09090909 5.72727273C5.09090909 6.07854545 5.376 6.36363636 5.72727273 6.36363636L5.72727273 6.36363636zM10.8181818 6.36363636C11.1694545 6.36363636 11.4545455 6.07854545 11.4545455 5.72727273L11.4545455.636363636C11.4545455.285090909 11.1694545 0 10.8181818 0 10.4669091 0 10.1818182.285090909 10.1818182.636363636L10.1818182 5.72727273C10.1818182 6.07854545 10.4669091 6.36363636 10.8181818 6.36363636L10.8181818 6.36363636zM15.9090909 6.36363636C16.261 6.36363636 16.5454545 6.07854545 16.5454545 5.72727273L16.5454545 3.18181818C16.5454545 2.83054545 16.261 2.54545455 15.9090909 2.54545455 15.5571818 2.54545455 15.2727273 2.83054545 15.2727273 3.18181818L15.2727273 5.72727273C15.2727273 6.07854545 15.5571818 6.36363636 15.9090909 6.36363636L15.9090909 6.36363636z" fill="none" stroke="none" class="main-fill"></path>
    </g></g><style>
          .main-fill {fill: #040404;}
          .main-stroke {stroke: #040404;}
          .secondary-fill {fill: ;}
          .secondary-stroke {stroke: ;}

          .main-fill--darken {fill: #000000;}
          .main-stroke--darken {stroke: #000000;}
          .secondary-fill--darken {fill: #000000;}
          .secondary-stroke--darken {stroke: #000000;}

          .main-fill--darkener {fill: #000000;}
          .main-stroke--darkener {stroke: #000000;}
          .secondary-fill--darkener {fill: #000000;}
          .secondary-stroke--darkener {stroke: #000000;}
        </style></svg>