<svg xmlns="http://www.w3.org/2000/svg" width="70" height="70" viewBox="0 0 70 70" style="width: 100%; height: 100%;"><desc>Made with illustrio</desc>
  
<g class="base"><g fill="none" fill-rule="evenodd" stroke="none" class="main-fill">
    
    <path fill="none" d="M23.65125,1.51666667 C23.3536917,0.624166667 22.46125,0.0291666667 21.56875,0.0291666667 L5.20625,0.0291666667 C4.165,0.0291666667 3.42125,0.624166667 3.12375,1.51666667 L0,10.4416667 L0,22.3416667 C0,23.2341667 0.595,23.8291667 1.4875,23.8291667 L2.975,23.8291667 C3.8675,23.8291667 4.4625,23.2341667 4.4625,22.3416667 L4.4625,20.8541667 L22.3125,20.8541667 L22.3125,22.3416667 C22.3125,23.2341667 22.9075,23.8291667 23.8,23.8291667 L25.2875,23.8291667 C26.18,23.8291667 26.775,23.2341667 26.775,22.3416667 L26.775,10.4416667 L23.65125,1.51666667 L23.65125,1.51666667 Z M5.20625,16.3916667 C4.01625,16.3916667 2.975,15.3504167 2.975,14.1604167 C2.975,12.9704167 4.01625,11.9291667 5.20625,11.9291667 C6.39625,11.9291667 7.4375,12.9704167 7.4375,14.1604167 C7.4375,15.3504167 6.39625,16.3916667 5.20625,16.3916667 L5.20625,16.3916667 Z M21.56875,16.3916667 C20.37875,16.3916667 19.3375,15.3504167 19.3375,14.1604167 C19.3375,12.9704167 20.37875,11.9291667 21.56875,11.9291667 C22.75875,11.9291667 23.8,12.9704167 23.8,14.1604167 C23.8,15.3504167 22.75875,16.3916667 21.56875,16.3916667 L21.56875,16.3916667 Z M2.975,8.95416667 L5.20625,2.26041667 L21.56875,2.26041667 L23.8,8.95416667 L2.975,8.95416667 L2.975,8.95416667 Z" transform="translate(21.583 23.042)" stroke="none" class="main-fill"></path>
  </g></g><style>
          .main-fill {fill: #000000;}
          .main-stroke {stroke: #000000;}
          .secondary-fill {fill: ;}
          .secondary-stroke {stroke: ;}

          .main-fill--darken {fill: #000000;}
          .main-stroke--darken {stroke: #000000;}
          .secondary-fill--darken {fill: #000000;}
          .secondary-stroke--darken {stroke: #000000;}

          .main-fill--darkener {fill: #000000;}
          .main-stroke--darkener {stroke: #000000;}
          .secondary-fill--darkener {fill: #000000;}
          .secondary-stroke--darkener {stroke: #000000;}
        </style></svg>