<svg xmlns="http://www.w3.org/2000/svg" width="70" height="70" viewBox="0 0 70 70" style="width: 100%; height: 100%;"><desc>Made with illustrio</desc>
  
<g class="base"><g fill="none" fill-rule="evenodd" stroke="none" class="main-fill">
    
    
  </g><g fill="none" transform="translate(19.09 22.273)" stroke="none" class="main-fill">
      <path d="M15.9090909 19.2309091C15.1308182 19.2309091 14.3996364 19.5338182 13.8504545 20.0836364 12.7151818 21.2189091 12.7151818 23.0662727 13.8504545 24.2015455 14.4002727 24.7513636 15.1314545 25.0542727 15.9090909 25.0542727 16.6867273 25.0542727 17.4179091 24.7513636 17.9677273 24.2015455 19.103 23.0662727 19.103 21.2189091 17.9677273 20.0836364 17.4179091 19.5331818 16.6867273 19.2309091 15.9090909 19.2309091L15.9090909 19.2309091zM8.57309091 14.8062727C8.07609091 15.3032727 8.07609091 16.1089091 8.57309091 16.6059091 9.06945455 17.1029091 9.87636364 17.1029091 10.3727273 16.6059091 13.4253636 13.5532727 18.3928182 13.5532727 21.4448182 16.6059091 21.6936364 16.8547273 22.0188182 16.9788182 22.3446364 16.9788182 22.6704545 16.9788182 22.9956364 16.8547273 23.2444545 16.6059091 23.7414545 16.1089091 23.7414545 15.3032727 23.2444545 14.8062727 19.201 10.7615455 12.6190909 10.7609091 8.57309091 14.8062727L8.57309091 14.8062727z" fill="none" stroke="none" class="main-fill"></path>
      <path d="M4.55063636,10.7838182 C4.05363636,11.2808182 4.05363636,12.0864545 4.55063636,12.5834545 C5.047,13.0804545 5.85390909,13.0804545 6.35027273,12.5834545 C11.6206364,7.31309091 20.1962727,7.31309091 25.4672727,12.5834545 C25.7160909,12.8322727 26.0412727,12.9563636 26.3670909,12.9563636 C26.6929091,12.9563636 27.0180909,12.8322727 27.2669091,12.5834545 C27.7639091,12.0864545 27.7639091,11.2808182 27.2669091,10.7838182 C21.0044545,4.52072727 10.8137273,4.52072727 4.55063636,10.7838182 L4.55063636,10.7838182 Z" fill="none" stroke="none" class="main-fill"></path>
      <path d="M31.29,6.76136364 C22.8085455,-1.71945455 9.00963636,-1.71945455 0.528181818,6.76136364 C0.0311818182,7.25836364 0.0311818182,8.064 0.528181818,8.561 C0.776363636,8.80981818 1.10218182,8.93390909 1.428,8.93390909 C1.75381818,8.93390909 2.07963636,8.80981818 2.32781818,8.561 C9.81654545,1.07227273 22.001,1.07227273 29.4903636,8.561 C29.9873636,9.058 30.793,9.058 31.29,8.561 C31.787,8.064 31.787,7.25772727 31.29,6.76136364 L31.29,6.76136364 Z" fill="none" stroke="none" class="main-fill"></path>
    </g></g><style>
          .main-fill {fill: #000000;}
          .main-stroke {stroke: #000000;}
          .secondary-fill {fill: ;}
          .secondary-stroke {stroke: ;}

          .main-fill--darken {fill: #000000;}
          .main-stroke--darken {stroke: #000000;}
          .secondary-fill--darken {fill: #000000;}
          .secondary-stroke--darken {stroke: #000000;}

          .main-fill--darkener {fill: #000000;}
          .main-stroke--darkener {stroke: #000000;}
          .secondary-fill--darkener {fill: #000000;}
          .secondary-stroke--darkener {stroke: #000000;}
        </style></svg>